<svg width="17" height="18" viewBox="0 0 17 18" fill="none" xmlns="http://www.w3.org/2000/svg">
<path d="M12.3292 1.46947C12.7956 0.962256 13.4796 0.669922 14.2 0.669922C16.3229 0.669922 17.445 2.99131 16.0281 4.45203L11.6786 8.93596L15.9685 13.4093C17.4149 14.9176 16.256 17.297 14.075 17.297C13.3296 17.297 12.6221 16.9932 12.1414 16.4668L8.27995 12.2376L4.36269 16.4975C3.89626 17.0047 3.21226 17.297 2.49191 17.297C0.368961 17.297 -0.753087 14.9756 0.663826 13.5149L5.01329 9.03098L0.723376 4.5576C-0.72302 3.04935 0.435856 0.669922 2.61683 0.669922C3.36228 0.669922 4.06978 0.973696 4.55046 1.50015L8.41193 5.72931L12.3292 1.46947Z" fill="white"/>
</svg>
