<svg width="998" height="500" viewBox="0 0 998 500" fill="none" xmlns="http://www.w3.org/2000/svg">
<mask id="mask0_0_2454" style="mask-type:luminance" maskUnits="userSpaceOnUse" x="0" y="0" width="998" height="500">
<path d="M0.523438 0.631836H997.477V499.843H0.523438V0.631836Z" fill="white"/>
</mask>
<g mask="url(#mask0_0_2454)">
<path d="M806.959 405.027H566.029V406.042C566.029 417.724 575.682 427.192 587.613 427.192H828.51" fill="white"/>
<path d="M587.596 429.954H828.51V424.413H587.596C577.826 424.413 569.767 417.108 568.87 407.789H806.959V402.248H563.254V406.025C563.254 419.205 574.17 429.938 587.596 429.938V429.954Z" fill="#F39E91"/>
<path d="M890.154 402.247V419.986C890.154 425.477 885.685 429.953 880.201 429.953H828.509C815.1 429.953 804.184 419.22 804.184 406.024V402.23H890.154V402.247Z" fill="#F39E91"/>
<path d="M617.188 405.009L887.396 405.009V255.662C887.396 246.027 879.586 238.189 869.949 238.189L634.635 238.189C625.015 238.189 617.188 246.01 617.188 255.662V405.009Z" fill="white"/>
<path d="M614.43 407.788H890.154V255.679C890.154 244.513 881.082 235.444 869.949 235.444H634.635C623.486 235.444 614.43 244.53 614.43 255.679V407.788ZM884.621 402.247H619.947V255.679C619.947 247.575 626.527 240.986 634.619 240.986H869.949C878.041 240.986 884.621 247.575 884.621 255.679V402.247Z" fill="#F39E91"/>
<path d="M625.113 407.788H879.469V255.912C879.469 250.421 875.016 245.944 869.516 245.944H635.032C629.549 245.944 625.08 250.404 625.08 255.912V407.788H625.113ZM873.952 402.247H630.646V255.912C630.646 253.466 632.623 251.486 635.066 251.486H869.532C871.975 251.486 873.952 253.466 873.952 255.912V402.247Z" fill="#F39E91"/>
<path d="M666.573 414.013H712.482C717.135 414.013 720.923 410.219 720.923 405.559V405.027H658.148V405.559C658.148 410.219 661.937 414.013 666.589 414.013H666.573Z" fill="#F39E91"/>
<path d="M692.855 323.788L711.98 278.477H723.462V323.788H728.43V333.373H723.462V345.537H713.127V333.373H692.839V323.788H692.855ZM713.143 323.788V298.595L702.526 323.788H713.143Z" fill="#F39E91"/>
<path d="M734.762 294.568C734.762 283.835 740.411 277.711 750.73 277.711C761.048 277.711 766.697 283.835 766.697 294.568V329.446C766.697 340.179 761.048 346.302 750.73 346.302C740.411 346.302 734.762 340.179 734.762 329.446V294.568ZM745.28 330.095C745.28 334.887 747.39 336.701 750.73 336.701C754.069 336.701 756.18 334.887 756.18 330.095V293.885C756.18 289.093 754.069 287.279 750.73 287.279C747.39 287.279 745.28 289.093 745.28 293.885V330.095Z" fill="#F39E91"/>
<path d="M773.409 323.788L792.534 278.477H804.016V323.788H808.984V333.373H804.016V345.537H793.681V333.373H773.393V323.788H773.409ZM793.681 323.788V298.595L783.063 323.788H793.681Z" fill="#F39E91"/>
<path d="M698.575 362.294V363.892C698.575 365.855 697.628 366.92 695.701 366.92H694.787V371.53H692.859V359.249H695.701C697.628 359.249 698.575 360.314 698.575 362.278V362.294ZM694.787 361.013V365.173H695.701C696.315 365.173 696.648 364.89 696.648 364.008V362.161C696.648 361.279 696.315 360.996 695.701 360.996H694.787V361.013Z" fill="#F39E91"/>
<path d="M705.57 371.545H703.626L703.294 369.315H700.934L700.602 371.545H698.824L700.785 359.265H703.61L705.57 371.545ZM701.167 367.651H703.028L702.098 361.445L701.167 367.651Z" fill="#F39E91"/>
<path d="M709.358 364.707H712.05V368.601C712.05 370.565 711.07 371.696 709.175 371.696C707.281 371.696 706.301 370.581 706.301 368.601V362.211C706.301 360.248 707.281 359.133 709.175 359.133C711.07 359.133 712.05 360.248 712.05 362.211V363.409H710.222V362.095C710.222 361.213 709.84 360.88 709.225 360.88C708.61 360.88 708.228 361.213 708.228 362.095V368.718C708.228 369.6 708.61 369.916 709.225 369.916C709.84 369.916 710.222 369.6 710.222 368.718V366.455H709.341V364.707H709.358Z" fill="#F39E91"/>
<path d="M715.225 364.441H717.867V366.188H715.225V369.782H718.548V371.53H713.298V359.249H718.548V360.996H715.225V364.424V364.441Z" fill="#F39E91"/>
<path d="M722.469 359.266H725.509C727.437 359.266 728.384 360.331 728.384 362.294V368.501C728.384 370.465 727.437 371.53 725.509 371.53H722.469V359.249V359.266ZM724.396 361.013V369.782H725.476C726.091 369.782 726.457 369.466 726.457 368.584V362.194C726.457 361.312 726.091 360.996 725.476 360.996H724.396V361.013Z" fill="#F39E91"/>
<path d="M729.448 362.211C729.448 360.248 730.478 359.133 732.373 359.133C734.267 359.133 735.297 360.248 735.297 362.211V368.601C735.297 370.565 734.267 371.696 732.373 371.696C730.478 371.696 729.448 370.581 729.448 368.601V362.211ZM731.376 368.718C731.376 369.6 731.758 369.932 732.373 369.932C732.987 369.932 733.37 369.6 733.37 368.718V362.095C733.37 361.213 732.987 360.88 732.373 360.88C731.758 360.88 731.376 361.213 731.376 362.095V368.718Z" fill="#F39E91"/>
<path d="M738.47 364.441H741.112V366.188H738.47V369.782H741.794V371.53H736.543V359.249H741.794V360.996H738.47V364.424V364.441Z" fill="#F39E91"/>
<path d="M745.597 359.115C747.475 359.115 748.439 360.23 748.439 362.194V362.576H746.611V362.077C746.611 361.195 746.262 360.862 745.647 360.862C745.032 360.862 744.683 361.195 744.683 362.077C744.683 364.607 748.455 365.072 748.455 368.584C748.455 370.547 747.475 371.679 745.581 371.679C743.686 371.679 742.706 370.564 742.706 368.584V367.835H744.534V368.717C744.534 369.599 744.916 369.915 745.531 369.915C746.146 369.915 746.528 369.599 746.528 368.717C746.528 366.187 742.756 365.721 742.756 362.21C742.756 360.247 743.72 359.132 745.597 359.132V359.115Z" fill="#F39E91"/>
<path d="M753.989 362.644V371.53H752.261V359.249H754.67L756.647 366.604V359.249H758.359V371.53H756.381L753.989 362.644Z" fill="#F39E91"/>
<path d="M759.605 362.211C759.605 360.248 760.636 359.133 762.53 359.133C764.424 359.133 765.454 360.248 765.454 362.211V368.601C765.454 370.565 764.424 371.696 762.53 371.696C760.636 371.696 759.605 370.581 759.605 368.601V362.211ZM761.516 368.718C761.516 369.6 761.898 369.932 762.513 369.932C763.128 369.932 763.51 369.6 763.51 368.718V362.095C763.51 361.213 763.128 360.88 762.513 360.88C761.898 360.88 761.516 361.213 761.516 362.095V368.718Z" fill="#F39E91"/>
<path d="M766.135 359.265H772.083V361.012H770.073V371.545H768.145V361.012H766.135V359.265Z" fill="#F39E91"/>
<path d="M777.584 364.723H780.076V366.47H777.584V371.545H775.656V359.265H780.757V361.012H777.584V364.706V364.723Z" fill="#F39E91"/>
<path d="M781.521 362.211C781.521 360.248 782.551 359.133 784.445 359.133C786.339 359.133 787.369 360.248 787.369 362.211V368.601C787.369 370.565 786.339 371.696 784.445 371.696C782.551 371.696 781.521 370.581 781.521 368.601V362.211ZM783.448 368.718C783.448 369.6 783.83 369.932 784.445 369.932C785.06 369.932 785.442 369.6 785.442 368.718V362.095C785.442 361.213 785.06 360.88 784.445 360.88C783.83 360.88 783.448 361.213 783.448 362.095V368.718Z" fill="#F39E91"/>
<path d="M790.463 359.265V368.733C790.463 369.615 790.845 369.931 791.46 369.931C792.074 369.931 792.457 369.615 792.457 368.733V359.265H794.284V368.617C794.284 370.58 793.304 371.712 791.41 371.712C789.515 371.712 788.535 370.597 788.535 368.617V359.265H790.463Z" fill="#F39E91"/>
<path d="M797.306 362.644V371.53H795.578V359.249H797.987L799.965 366.604V359.249H801.676V371.53H799.699L797.306 362.644Z" fill="#F39E91"/>
<path d="M803.071 359.266H806.112C808.039 359.266 808.987 360.331 808.987 362.294V368.501C808.987 370.465 808.039 371.53 806.112 371.53H803.071V359.249V359.266ZM804.999 361.013V369.782H806.079C806.694 369.782 807.059 369.466 807.059 368.584V362.194C807.059 361.312 806.694 360.996 806.079 360.996H804.999V361.013Z" fill="#F39E91"/>
<path d="M875.136 283.102H926.363C932.19 283.102 936.914 287.832 936.914 293.668V416.624C936.914 422.46 932.19 427.19 926.363 427.19H875.136C869.309 427.19 864.585 422.46 864.585 416.624V293.668C864.585 287.832 869.309 283.102 875.136 283.102Z" fill="white"/>
<path d="M875.135 280.322H926.362C926.362 280.322 926.412 280.322 926.429 280.322H929.22C936.564 280.322 942.529 286.296 942.529 293.651V416.623C942.529 423.978 936.564 429.952 929.22 429.952H926.429C926.429 429.952 926.379 429.952 926.362 429.952H875.135C867.791 429.952 861.826 423.962 861.826 416.623V293.668C861.826 286.313 867.808 280.339 875.135 280.339V280.322ZM867.342 416.623C867.342 420.917 870.832 424.428 875.135 424.428H918.27H926.379C930.649 424.411 934.138 420.917 934.138 416.623V293.668C934.138 289.375 930.666 285.897 926.379 285.864H918.27H875.135C870.848 285.864 867.342 289.358 867.342 293.668V416.623Z" fill="#F39E91"/>
<path d="M895.057 414.877C895.057 418.022 897.599 420.568 900.739 420.568C903.88 420.568 906.422 418.022 906.422 414.877C906.422 411.732 903.88 409.186 900.739 409.186C897.599 409.186 895.057 411.732 895.057 414.877Z" fill="#F39E91"/>
<path d="M891.852 283.102C891.852 288.027 895.84 292.004 900.741 292.004C905.643 292.004 909.631 288.01 909.631 283.102H891.852Z" fill="#F39E91"/>
<path d="M906.657 368.315C906.657 367.416 906.491 366.567 906.159 365.802C905.826 365.02 905.361 364.354 904.763 363.772C904.181 363.189 903.484 362.74 902.686 362.407C901.888 362.075 901.008 361.908 900.061 361.908C899.114 361.908 898.266 362.075 897.469 362.407C896.671 362.74 895.973 363.206 895.375 363.772C894.777 364.354 894.312 365.02 893.963 365.802C893.63 366.584 893.464 367.416 893.464 368.315C893.464 369.213 893.63 370.062 893.963 370.844C894.295 371.626 894.777 372.325 895.375 372.891C895.973 373.473 896.671 373.922 897.469 374.239C898.266 374.571 899.13 374.721 900.061 374.721C900.991 374.721 901.888 374.555 902.686 374.239C903.484 373.906 904.181 373.457 904.763 372.891C905.345 372.308 905.81 371.626 906.159 370.844C906.491 370.062 906.657 369.213 906.657 368.315ZM894.511 316.696V343.271C894.511 345.567 894.644 347.864 894.926 350.127C895.209 352.39 895.558 354.703 896.006 357.066H903.882C904.331 354.719 904.697 352.406 904.979 350.127C905.261 347.864 905.394 345.567 905.394 343.271V316.696H894.511Z" fill="#F39E91"/>
<path d="M0.523438 424.961H997.477V429.953H0.523438V424.961Z" fill="#F39E91"/>
<path d="M750.5 210.6C778.498 210.6 801.295 187.787 801.295 159.731C801.295 131.675 778.515 108.861 750.5 108.861C722.486 108.861 699.705 131.675 699.705 159.731C699.705 187.787 722.486 210.6 750.5 210.6Z" fill="#F39E91"/>
<path d="M747.726 207.822C721.206 207.822 699.706 186.291 699.706 159.731C699.706 133.172 721.206 111.641 747.726 111.641C774.247 111.641 795.746 133.172 795.746 159.731C795.746 186.291 774.247 207.822 747.726 207.822Z" fill="white"/>
<path d="M747.724 210.6C775.722 210.6 798.519 187.787 798.519 159.731C798.519 131.675 775.738 108.861 747.724 108.861C719.709 108.861 696.929 131.675 696.929 159.731C696.929 187.787 719.709 210.6 747.724 210.6ZM747.724 114.419C772.681 114.419 792.985 134.754 792.985 159.748C792.985 184.741 772.681 205.076 747.724 205.076C722.767 205.076 702.462 184.741 702.462 159.748C702.462 134.754 722.767 114.419 747.724 114.419Z" fill="#F39E91"/>
<path d="M755.453 185.275C755.453 184.376 755.287 183.527 754.955 182.762C754.622 181.98 754.157 181.314 753.559 180.732C752.977 180.149 752.28 179.7 751.482 179.367C750.684 179.035 749.804 178.868 748.857 178.868C747.91 178.868 747.062 179.035 746.265 179.367C745.467 179.7 744.769 180.166 744.171 180.732C743.573 181.314 743.108 181.98 742.759 182.762C742.426 183.544 742.26 184.376 742.26 185.275C742.26 186.173 742.426 187.022 742.759 187.804C743.091 188.586 743.573 189.285 744.171 189.851C744.769 190.433 745.467 190.882 746.265 191.199C747.062 191.531 747.926 191.681 748.857 191.681C749.787 191.681 750.684 191.515 751.482 191.199C752.28 190.866 752.977 190.417 753.559 189.851C754.14 189.268 754.606 188.586 754.955 187.804C755.287 187.022 755.453 186.173 755.453 185.275ZM743.307 133.656V160.231C743.307 162.527 743.44 164.824 743.722 167.087C744.005 169.35 744.354 171.663 744.802 174.026H752.678C753.127 171.679 753.492 169.366 753.775 167.087C754.057 164.824 754.19 162.527 754.19 160.231V133.656H743.307Z" fill="#F39E91"/>
<path d="M506.96 298.695H556.674C558.352 298.695 559.914 297.796 560.745 296.332L585.602 253.217C586.433 251.769 586.433 249.955 585.602 248.507L560.745 205.392C559.914 203.945 558.352 203.029 556.674 203.029H506.96C505.281 203.029 503.719 203.928 502.889 205.392L478.031 248.507C477.2 249.955 477.2 251.769 478.031 253.217L502.889 296.332C503.719 297.779 505.281 298.695 506.96 298.695Z" fill="#F39E91"/>
<path d="M503.006 205.575H552.721C553.502 205.575 554.216 205.991 554.615 206.673L579.472 249.789C579.854 250.471 579.854 251.303 579.472 251.968L554.615 295.084C554.233 295.766 553.502 296.182 552.721 296.182H503.006C502.225 296.182 501.51 295.766 501.112 295.084L476.254 251.968C475.872 251.286 475.872 250.454 476.254 249.789L501.112 206.673C501.494 205.991 502.225 205.575 503.006 205.575Z" fill="white"/>
<path d="M503.005 298.695H552.72C554.398 298.695 555.96 297.796 556.791 296.332L581.648 253.217C582.479 251.769 582.479 249.955 581.648 248.507L556.791 205.392C555.96 203.945 554.398 203.029 552.72 203.029H503.005C501.327 203.029 499.765 203.928 498.934 205.392L474.077 248.507C473.246 249.955 473.246 251.769 474.077 253.217L498.934 296.332C499.765 297.779 501.327 298.695 503.005 298.695ZM552.521 293.636H503.221L478.563 250.87L503.221 208.105H552.537L577.195 250.87L552.537 293.636H552.521Z" fill="#F39E91"/>
<path d="M534.458 273.468C534.458 272.569 534.292 271.721 533.96 270.955C533.627 270.173 533.162 269.508 532.564 268.925C531.982 268.343 531.284 267.893 530.487 267.561C529.689 267.228 528.809 267.061 527.861 267.061C526.914 267.061 526.067 267.228 525.269 267.561C524.472 267.893 523.774 268.359 523.176 268.925C522.578 269.508 522.112 270.173 521.763 270.955C521.431 271.737 521.265 272.569 521.265 273.468C521.265 274.367 521.431 275.215 521.763 275.997C522.096 276.779 522.578 277.478 523.176 278.044C523.774 278.627 524.472 279.076 525.269 279.392C526.067 279.725 526.931 279.875 527.861 279.875C528.792 279.875 529.689 279.708 530.487 279.392C531.284 279.059 531.982 278.61 532.564 278.044C533.145 277.462 533.611 276.779 533.96 275.997C534.292 275.215 534.458 274.367 534.458 273.468ZM522.312 221.85V248.424C522.312 250.721 522.445 253.017 522.727 255.28C523.01 257.543 523.359 259.856 523.807 262.219H531.683C532.132 259.873 532.497 257.56 532.78 255.28C533.062 253.017 533.195 250.721 533.195 248.424V221.85H522.312Z" fill="#F39E91"/>
<path d="M528.909 293.636H539.493V429.954H528.909V293.636Z" fill="#F39E91"/>
<path d="M524.074 296.165H534.658V427.424H524.074V296.165Z" fill="white"/>
<path d="M521.531 429.954H537.167V293.636H521.531V429.954ZM532.116 424.895H526.583V298.694H532.116V424.895Z" fill="#F39E91"/>
<path d="M495.827 193.844C494.448 194.609 492.719 194.11 491.955 192.746L489.313 188.02C488.549 186.639 489.047 184.908 490.41 184.126C491.789 183.361 493.517 183.86 494.298 185.224L496.94 189.95C497.704 191.331 497.206 193.062 495.843 193.844H495.827Z" fill="#F39E91"/>
<path d="M482.899 210.367C482.234 210.733 481.47 210.833 480.739 210.617L475.538 209.136C474.807 208.936 474.192 208.454 473.826 207.788C473.461 207.122 473.361 206.357 473.577 205.608C473.993 204.144 475.638 203.229 477.1 203.645L482.301 205.126C483.813 205.558 484.693 207.139 484.261 208.653C484.062 209.386 483.58 210.001 482.915 210.367H482.899Z" fill="#F39E91"/>
<path d="M517.976 189.134C517.76 189.9 517.261 190.499 516.63 190.848C515.998 191.198 515.217 191.314 514.47 191.098C512.958 190.665 512.077 189.084 512.509 187.57L513.988 182.362C514.42 180.847 515.998 179.965 517.511 180.398C519.023 180.831 519.903 182.412 519.471 183.926L517.992 189.134H517.976Z" fill="#F39E91"/>
</g>
</svg>
