<svg width="254" height="74" viewBox="0 0 254 74" fill="none" xmlns="http://www.w3.org/2000/svg">
<path d="M47.6243 63.8311C45.6571 64.6594 44.2852 66.2014 44.2852 66.2014C44.2852 66.2014 45.6571 67.7434 47.6243 68.5717C47.3211 67.8506 47.1103 67.0482 47.1103 66.2014C47.1103 65.3546 47.3211 64.5558 47.6243 63.8311Z" fill="#F6F6F6"/>
<path d="M52.3594 63.8311C52.6626 64.5521 52.8734 65.3546 52.8734 66.2014C52.8734 67.0482 52.6626 67.8469 52.3594 68.5717C54.3266 67.7434 55.6985 66.2014 55.6985 66.2014C55.6985 66.2014 54.3266 64.6594 52.3594 63.8311Z" fill="#F6F6F6"/>
<path d="M47.6172 68.5674C48.4455 70.5346 49.9875 71.9065 49.9875 71.9065C49.9875 71.9065 51.5295 70.5346 52.3578 68.5674C51.6367 68.8706 50.8343 69.0814 49.9875 69.0814C49.1407 69.0814 48.342 68.8706 47.6172 68.5674Z" fill="#F6F6F6"/>
<path d="M52.3578 63.8304C51.5295 61.8631 49.9875 60.4912 49.9875 60.4912C49.9875 60.4912 48.4455 61.8631 47.6172 63.8304C48.3383 63.5271 49.1407 63.3164 49.9875 63.3164C50.8343 63.3164 51.633 63.5271 52.3578 63.8304Z" fill="#F6F6F6"/>
<path d="M52.364 63.8304C51.6429 63.5272 50.8405 63.3164 49.9937 63.3164C49.1469 63.3164 48.3482 63.5272 47.6234 63.8304C47.3202 64.5515 47.1094 65.3539 47.1094 66.2007C47.1094 67.0475 47.3202 67.8463 47.6234 68.5711C48.3445 68.8743 49.1469 69.0851 49.9937 69.0851C50.8405 69.0851 51.6392 68.8743 52.364 68.5711C52.6672 67.85 52.878 67.0475 52.878 66.2007C52.878 65.3539 52.6672 64.5552 52.364 63.8304Z" fill="#F6F6F6"/>
<path d="M127.46 63.8311C125.493 64.6594 124.121 66.2014 124.121 66.2014C124.121 66.2014 125.493 67.7434 127.46 68.5717C127.157 67.8506 126.946 67.0482 126.946 66.2014C126.946 65.3546 127.157 64.5558 127.46 63.8311Z" fill="#F6F6F6"/>
<path d="M132.203 63.8311C132.506 64.5521 132.717 65.3546 132.717 66.2014C132.717 67.0482 132.506 67.8469 132.203 68.5717C134.17 67.7434 135.542 66.2014 135.542 66.2014C135.542 66.2014 134.17 64.6594 132.203 63.8311Z" fill="#F6F6F6"/>
<path d="M127.453 68.5674C128.281 70.5346 129.823 71.9065 129.823 71.9065C129.823 71.9065 131.365 70.5346 132.194 68.5674C131.473 68.8706 130.67 69.0814 129.823 69.0814C128.977 69.0814 128.178 68.8706 127.453 68.5674Z" fill="#F6F6F6"/>
<path d="M132.194 63.8304C131.365 61.8631 129.823 60.4912 129.823 60.4912C129.823 60.4912 128.281 61.8631 127.453 63.8304C128.174 63.5271 128.977 63.3164 129.823 63.3164C130.67 63.3164 131.469 63.5271 132.194 63.8304Z" fill="#F6F6F6"/>
<path d="M132.204 63.8304C131.483 63.5272 130.68 63.3164 129.834 63.3164C128.987 63.3164 128.188 63.5272 127.463 63.8304C127.16 64.5515 126.949 65.3539 126.949 66.2007C126.949 67.0475 127.16 67.8463 127.463 68.5711C128.184 68.8743 128.987 69.0851 129.834 69.0851C130.68 69.0851 131.479 68.8743 132.204 68.5711C132.507 67.85 132.718 67.0475 132.718 66.2007C132.718 65.3539 132.507 64.5552 132.204 63.8304Z" fill="#F6F6F6"/>
<path d="M202.667 63.8311C200.7 64.6594 199.328 66.2014 199.328 66.2014C199.328 66.2014 200.7 67.7434 202.667 68.5717C202.364 67.8506 202.153 67.0482 202.153 66.2014C202.153 65.3546 202.364 64.5558 202.667 63.8311Z" fill="#F6F6F6"/>
<path d="M207.41 63.8311C207.713 64.5521 207.924 65.3546 207.924 66.2014C207.924 67.0482 207.713 67.8469 207.41 68.5717C209.377 67.7434 210.749 66.2014 210.749 66.2014C210.749 66.2014 209.377 64.6594 207.41 63.8311Z" fill="#F6F6F6"/>
<path d="M202.664 68.5674C203.492 70.5346 205.034 71.9065 205.034 71.9065C205.034 71.9065 206.576 70.5346 207.405 68.5674C206.684 68.8706 205.881 69.0814 205.034 69.0814C204.188 69.0814 203.389 68.8706 202.664 68.5674Z" fill="#F6F6F6"/>
<path d="M207.405 63.8304C206.576 61.8631 205.034 60.4912 205.034 60.4912C205.034 60.4912 203.492 61.8631 202.664 63.8304C203.385 63.5271 204.188 63.3164 205.034 63.3164C205.881 63.3164 206.68 63.5271 207.405 63.8304Z" fill="#F6F6F6"/>
<path d="M207.41 63.8311C206.689 63.5278 205.887 63.3164 205.041 63.3164C204.194 63.3164 203.395 63.5272 202.67 63.8304C202.367 64.5515 202.156 65.3539 202.156 66.2007C202.156 67.0475 202.367 67.8463 202.67 68.5711C203.391 68.8743 204.194 69.0851 205.041 69.0851C205.887 69.0851 206.685 68.8749 207.41 68.5717C207.713 67.8506 207.924 67.0482 207.924 66.2014C207.924 65.3546 207.713 64.5558 207.41 63.8311Z" fill="#F6F6F6"/>
<path d="M15.3746 60.8818H13.8991L13.8067 61.1L9.95723 70.1376L6.09295 61.1L6.0005 60.8818H3.72266V73.1513H5.67509V64.9828L9.13998 73.155H10.7042L14.1691 64.9828V73.1513H16.1215V60.8818H15.3672H15.3746Z" fill="#F6F6F6"/>
<path d="M90.9073 61.0963L90.8148 60.8818H88.977L88.8846 61.0963L83.8666 72.6521L83.6484 73.1513H85.7673L85.8597 72.9331L87.0837 70.0784H92.6527L93.9765 73.1476H96.1435L95.9253 72.6484L90.9073 61.0926V61.0963ZM91.8391 68.1962H87.8899L89.8608 63.6072L91.8391 68.1962Z" fill="#F6F6F6"/>
<path d="M165.653 71.2654V60.8818H163.652V73.1513H171.481V71.2654H165.653Z" fill="#F6F6F6"/>
<path d="M246.653 71.2654H241.184V60.8818H239.18V73.1513H247.008V71.2654H246.649H246.653Z" fill="#F6F6F6"/>
<path d="M36.0691 1.43486L26.2586 1.40527H3.52425C3.64628 7.00382 6.1978 10.0546 9.90675 11.6742C11.3526 12.3029 12.8983 12.6652 14.4625 12.791H17.4134L0.210938 47.1514H33.2328C36.3871 47.1514 39.5339 46.8149 42.6031 46.0975C43.4426 45.9016 44.2339 45.6908 44.8515 45.4837C55.9413 41.7045 62.7232 30.2929 60.2049 18.8481C57.7643 7.75819 47.843 1.47184 36.0728 1.43856L36.0691 1.43486ZM35.3036 36.6532L17.3283 36.6015L29.0061 13.5601L37.5186 13.6267C54.0369 13.6267 51.4817 36.6569 35.3036 36.6569V36.6532Z" fill="#F6F6F6"/>
<path d="M161.816 16.2251C159.864 14.6092 143.578 1.64449 122.094 1.52246V47.1577C127.933 47.0246 131.109 44.3658 132.799 40.4978C133.664 38.5195 134.038 36.3563 134.016 34.193L133.812 14.3059C133.812 14.3059 139.019 14.979 145.56 18.5511C150.686 21.3467 153.714 24.5712 153.714 24.5712C143.819 43.0494 161.816 49.5724 161.816 49.5724C161.816 49.5724 178.893 42.0583 169.918 24.5712C169.918 24.5712 172.943 21.3504 178.072 18.5511C184.613 14.9827 189.82 14.3059 189.82 14.3059L189.617 34.193C189.594 36.3563 189.968 38.5195 190.833 40.4978C192.523 44.3658 195.7 47.0283 201.538 47.1577V1.52246C180.054 1.64079 163.765 14.6055 161.816 16.2251ZM161.816 39.9654C160.799 39.5808 156.395 37.3288 161.816 28.7572C167.237 37.3288 162.833 39.5808 161.816 39.9654Z" fill="#F6F6F6"/>
<path d="M253.197 1.52616H252.717C245.639 1.52616 239.171 5.53094 236.017 11.8691L225.031 33.9415C224.454 35.099 223.274 35.8274 221.984 35.8274C219.458 35.8274 217.812 33.1761 218.933 30.913L227.852 12.8823C230.441 7.64981 226.632 1.52246 220.797 1.52246L208.564 26.3055C203.779 35.9976 210.835 47.3463 221.643 47.3463C227.209 47.3463 232.29 44.1772 234.741 39.1814L253.201 1.52246L253.197 1.52616Z" fill="#F6F6F6"/>
<path d="M112.476 35.4408C112.476 30.5042 112.424 24.5691 112.077 19.5918C111.345 0.266834 87.5933 -5.25776 74.1442 5.28482C70.8901 7.83634 69.422 12.4698 70.4759 16.2231C79.0882 7.20031 96.7492 7.89921 101.793 17.0995H84.953C79.739 17.1032 76.2593 18.5268 73.2493 20.4053C54.7378 31.9574 75.5901 61.9618 103.413 41.2243C103.313 43.8793 104.526 46.3014 106.371 47.1926C111.108 49.489 116.607 45.8614 116.607 40.5956V40.2961C116.607 40.2961 112.48 40.2887 112.48 35.4445L112.476 35.4408ZM76.3518 30.0678C77.1727 26.8322 80.523 25.4085 85.3117 25.4085H101.797C101.797 42.8698 72.7168 44.4007 76.3518 30.0678Z" fill="#F6F6F6"/>
</svg>
