<svg width="155" height="46" viewBox="0 0 155 46" fill="none" xmlns="http://www.w3.org/2000/svg">
<path d="M29.1978 39.666C27.995 40.1724 27.1562 41.1152 27.1562 41.1152C27.1562 41.1152 27.995 42.058 29.1978 42.5644C29.0124 42.1236 28.8835 41.633 28.8835 41.1152C28.8835 40.5975 29.0124 40.1091 29.1978 39.666Z" fill="#ED4A71"/>
<path d="M32.0938 39.666C32.2791 40.1069 32.408 40.5975 32.408 41.1152C32.408 41.633 32.2791 42.1213 32.0938 42.5644C33.2965 42.058 34.1353 41.1152 34.1353 41.1152C34.1353 41.1152 33.2965 40.1724 32.0938 39.666Z" fill="#ED4A71"/>
<path d="M29.1955 42.5625C29.7019 43.7653 30.6447 44.6041 30.6447 44.6041C30.6447 44.6041 31.5874 43.7653 32.0939 42.5625C31.653 42.7479 31.1624 42.8768 30.6447 42.8768C30.1269 42.8768 29.6386 42.7479 29.1955 42.5625Z" fill="#ED4A71"/>
<path d="M32.0938 39.666C31.5873 38.4632 30.6447 37.624 30.6447 37.624C30.6447 37.624 29.7019 38.4628 29.1955 39.6656C29.6363 39.4802 30.1269 39.3513 30.6447 39.3513C31.1624 39.3513 31.6506 39.4806 32.0938 39.666Z" fill="#ED4A71"/>
<path d="M32.0955 39.6658C31.6546 39.4804 31.164 39.3516 30.6463 39.3516C30.1286 39.3516 29.6409 39.4806 29.1978 39.666C29.0124 40.1069 28.8835 40.5975 28.8835 41.1152C28.8835 41.633 29.0124 42.1213 29.1978 42.5644C29.6387 42.7498 30.1286 42.8785 30.6463 42.8785C31.164 42.8785 31.6524 42.7496 32.0955 42.5642C32.2809 42.1234 32.4097 41.6328 32.4097 41.115C32.4097 40.5973 32.2809 40.1089 32.0955 39.6658Z" fill="#ED4A71"/>
<path d="M78.0103 39.666C76.8075 40.1724 75.9688 41.1152 75.9688 41.1152C75.9688 41.1152 76.8075 42.058 78.0103 42.5644C77.8249 42.1236 77.696 41.633 77.696 41.1152C77.696 40.5975 77.8249 40.1091 78.0103 39.666Z" fill="#ED4A71"/>
<path d="M80.9102 39.666C81.0955 40.1069 81.2244 40.5975 81.2244 41.1152C81.2244 41.633 81.0955 42.1213 80.9102 42.5644C82.1129 42.058 82.9517 41.1152 82.9517 41.1152C82.9517 41.1152 82.1129 40.1724 80.9102 39.666Z" fill="#ED4A71"/>
<path d="M78.008 42.5625C78.5144 43.7653 79.4572 44.6041 79.4572 44.6041C79.4572 44.6041 80.4 43.7653 80.9064 42.5625C80.4655 42.7479 79.9749 42.8768 79.4572 42.8768C78.9394 42.8768 78.4511 42.7479 78.008 42.5625Z" fill="#ED4A71"/>
<path d="M80.9064 39.6656C80.4 38.4628 79.4572 37.624 79.4572 37.624C79.4572 37.624 78.5144 38.4628 78.008 39.6656C78.4488 39.4802 78.9394 39.3513 79.4572 39.3513C79.9749 39.3513 80.4633 39.4802 80.9064 39.6656Z" fill="#ED4A71"/>
<path d="M80.9119 39.6658C80.4711 39.4804 79.9804 39.3516 79.4627 39.3516C78.945 39.3516 78.4566 39.4804 78.0135 39.6658C77.8281 40.1067 77.6992 40.5973 77.6992 41.115C77.6992 41.6328 77.8281 42.1211 78.0135 42.5642C78.4543 42.7496 78.945 42.8785 79.4627 42.8785C79.9804 42.8785 80.4688 42.7496 80.9119 42.5642C81.0973 42.1234 81.2262 41.6328 81.2262 41.115C81.2262 40.5973 81.0973 40.1089 80.9119 39.6658Z" fill="#ED4A71"/>
<path d="M123.991 39.666C122.788 40.1724 121.949 41.1152 121.949 41.1152C121.949 41.1152 122.788 42.058 123.991 42.5644C123.805 42.1236 123.677 41.633 123.677 41.1152C123.677 40.5975 123.805 40.1091 123.991 39.666Z" fill="#ED4A71"/>
<path d="M126.891 39.666C127.076 40.1069 127.205 40.5975 127.205 41.1152C127.205 41.633 127.076 42.1213 126.891 42.5644C128.093 42.058 128.932 41.1152 128.932 41.1152C128.932 41.1152 128.093 40.1724 126.891 39.666Z" fill="#ED4A71"/>
<path d="M123.988 42.5625C124.495 43.7653 125.438 44.6041 125.438 44.6041C125.438 44.6041 126.38 43.7653 126.887 42.5625C126.446 42.7479 125.955 42.8768 125.438 42.8768C124.92 42.8768 124.432 42.7479 123.988 42.5625Z" fill="#ED4A71"/>
<path d="M126.887 39.6656C126.38 38.4628 125.438 37.624 125.438 37.624C125.438 37.624 124.495 38.4628 123.988 39.6656C124.429 39.4802 124.92 39.3513 125.438 39.3513C125.955 39.3513 126.444 39.4802 126.887 39.6656Z" fill="#ED4A71"/>
<path d="M126.892 39.6658C126.451 39.4804 125.961 39.3516 125.443 39.3516C124.925 39.3516 124.437 39.4804 123.994 39.6658C123.809 40.1067 123.68 40.5973 123.68 41.115C123.68 41.6328 123.809 42.1211 123.994 42.5642C124.435 42.7496 124.925 42.8785 125.443 42.8785C125.961 42.8785 126.449 42.7496 126.892 42.5642C127.078 42.1234 127.207 41.6328 127.207 41.115C127.207 40.5973 127.078 40.1089 126.892 39.6658Z" fill="#ED4A71"/>
<path d="M9.48331 37.8633H8.58123L8.52471 37.9967L6.17118 43.5222L3.80857 37.9967L3.75204 37.8633H2.35938V45.3648H3.55309V40.3706L5.67151 45.3671H6.62788L8.7463 40.3706V45.3648H9.94001V37.8633H9.47882H9.48331Z" fill="#181518"/>
<path d="M55.6646 37.9944L55.608 37.8633H54.4844L54.4279 37.9944L51.3599 45.0596L51.2265 45.3648H52.522L52.5785 45.2314L53.3268 43.486H56.7317L57.5411 45.3625H58.8659L58.7326 45.0573L55.6646 37.9921V37.9944ZM56.2343 42.3353H53.8197L55.0247 39.5295L56.2343 42.3353Z" fill="#181518"/>
<path d="M101.364 44.2118V37.8633H100.141V45.3648H104.927V44.2118H101.364Z" fill="#181518"/>
<path d="M150.886 44.2118H147.542V37.8633H146.316V45.3648H151.103V44.2118H150.883H150.886Z" fill="#181518"/>
<path d="M22.1345 1.51735L16.1364 1.49927H2.23669C2.31129 4.92221 3.87129 6.78741 6.13893 7.77767C7.02292 8.16202 7.96795 8.38358 8.92429 8.46045H10.7285L0.210938 29.4683H20.4004C22.3289 29.4683 24.2529 29.2626 26.1294 28.824C26.6426 28.7042 27.1265 28.5753 27.504 28.4487C34.2844 26.1381 38.4307 19.1611 36.8911 12.1637C35.3989 5.38342 29.3331 1.53996 22.1368 1.51961L22.1345 1.51735ZM21.6665 23.0498L10.6765 23.0181L17.8162 8.93071L23.0207 8.9714C33.12 8.9714 31.5577 23.052 21.6665 23.052V23.0498Z" fill="#F39E91"/>
<path d="M99.0166 10.5605C97.8229 9.57247 87.8661 1.6459 74.7305 1.57129V29.4725C78.3004 29.3912 80.2425 27.7656 81.2757 25.4007C81.8047 24.1912 82.0331 22.8686 82.0195 21.546L81.8951 9.38708C81.8951 9.38708 85.0784 9.79855 89.0779 11.9825C92.2114 13.6918 94.0631 15.6632 94.0631 15.6632C88.013 26.9607 99.0166 30.9489 99.0166 30.9489C99.0166 30.9489 109.457 26.3548 103.97 15.6632C103.97 15.6632 105.82 13.694 108.955 11.9825C112.955 9.80081 116.138 9.38708 116.138 9.38708L116.014 21.546C116 22.8686 116.229 24.1912 116.758 25.4007C117.791 27.7656 119.733 29.3934 123.303 29.4725V1.57129C110.167 1.64364 100.208 9.57021 99.0166 10.5605ZM99.0166 25.0752C98.3949 24.84 95.7022 23.4632 99.0166 18.2225C102.331 23.4632 99.6384 24.84 99.0166 25.0752Z" fill="#F39E91"/>
<path d="M154.885 1.57355H154.591C150.264 1.57355 146.31 4.02206 144.381 7.89717L137.664 21.3922C137.311 22.0999 136.59 22.5453 135.801 22.5453C134.257 22.5453 133.251 20.9242 133.936 19.5406L139.389 8.51664C140.972 5.31753 138.643 1.57129 135.075 1.57129L127.596 16.7236C124.671 22.6493 128.985 29.5878 135.593 29.5878C138.996 29.5878 142.102 27.6503 143.601 24.5959L154.887 1.57129L154.885 1.57355Z" fill="#F39E91"/>
<path d="M68.8496 22.3085C68.8496 19.2903 68.8179 15.6616 68.6054 12.6185C68.1577 0.803221 53.6363 -2.5745 45.4135 3.8712C43.424 5.4312 42.5264 8.26405 43.1707 10.5588C48.4363 5.04233 59.2341 5.46963 62.318 11.0946H52.022C48.8342 11.0969 46.7067 11.9673 44.8664 13.1159C33.5485 20.1788 46.2975 38.5234 63.3082 25.8445C63.2472 27.4678 63.9887 28.9486 65.1169 29.4935C68.0131 30.8975 71.3749 28.6796 71.3749 25.4601V25.277C71.3749 25.277 68.8518 25.2725 68.8518 22.3108L68.8496 22.3085ZM46.7632 19.0235C47.2652 17.0452 49.3135 16.1748 52.2413 16.1748H62.3202C62.3202 26.8506 44.5408 27.7866 46.7632 19.0235Z" fill="#F39E91"/>
</svg>
