<svg width="244" height="330" viewBox="0 0 244 330" fill="none" xmlns="http://www.w3.org/2000/svg">
<path fill-rule="evenodd" clip-rule="evenodd" d="M25.5292 80.1205C32.0787 82.1892 38.433 84.7574 44.3267 87.755C48.9793 90.0969 53.5849 92.8604 57.7769 96.0922C62.0001 92.8604 66.6136 90.0891 71.2661 87.755C77.1599 84.7574 83.5142 82.1814 90.0636 80.1205C83.5142 78.0519 77.1599 75.4836 71.2661 72.525C66.6136 70.1519 62.0079 67.3807 57.7769 64.1489C53.5928 67.3807 48.9793 70.1519 44.3267 72.525C38.433 75.4836 32.0787 78.0597 25.5292 80.1205Z" fill="#C4C4C4" fill-opacity="0.09"/>
<path fill-rule="evenodd" clip-rule="evenodd" d="M48.0011 126.409C41.4517 116.51 23.0835 110.156 10.9526 108.72V132.139C10.9526 136.229 11.9206 140.046 14.5201 142.778C18.5091 146.986 25.605 147.728 31.5299 142.349C27.4238 143.364 23.3958 140.437 23.0835 135.917C22.7323 130.265 28.7821 126.253 33.9342 128.087C39.7109 130.195 41.5297 136.346 40.0544 141.92C38.2745 148.586 33.2707 153.067 27.3458 154.855C18.6262 157.501 7.19778 153.762 2.85749 145.503C0.414131 140.827 0.453162 135.214 0.453162 128.321V93.8722C13.8253 95.1992 28.3918 99.641 40.3666 105.683C46.9551 108.993 53.0362 113.044 57.7668 117.876C62.4974 113.044 68.6175 108.993 75.206 105.683C87.1808 99.641 101.747 95.1992 115.119 93.8722V128.321C115.119 135.222 115.158 140.827 112.715 145.503C108.375 153.762 96.9074 157.501 88.2268 154.855C82.2628 153.059 77.2981 148.578 75.5182 141.92C74.0428 136.346 75.8695 130.187 81.6383 128.087C86.7905 126.253 92.8403 130.273 92.45 135.917C92.1768 140.437 88.1097 143.356 84.0427 142.349C89.9754 147.728 97.0635 146.986 101.053 142.778C103.652 140.054 104.62 136.229 104.62 132.139V108.72C92.45 110.164 74.1209 116.51 67.5324 126.409C75.4792 137.088 74.0819 154.855 57.7668 160.155C41.4517 154.855 40.0544 137.088 48.0011 126.409ZM57.7668 131.982C51.9901 138.142 52.2634 147.845 57.7668 149.788C63.3092 147.837 63.5824 138.134 57.7668 131.982Z" fill="#C4C4C4" fill-opacity="0.09"/>
<path fill-rule="evenodd" clip-rule="evenodd" d="M48.0013 33.8266C41.4518 43.7639 23.0837 50.1183 10.9527 51.5546V28.0968C10.9527 24.0063 11.9207 20.189 14.5202 17.4568C18.5092 13.2492 25.6051 12.5077 31.5301 17.8862C27.424 16.8714 23.3959 19.8377 23.0837 24.3185C22.7324 29.9703 28.7823 34.0217 33.9344 32.1482C39.711 30.0796 41.5299 23.8892 40.0545 18.3155C38.2747 11.688 33.2709 7.20718 27.3459 5.38052C18.6263 2.73419 7.19792 6.4734 2.85764 14.7324C0.414275 19.4084 0.453307 25.0523 0.453307 31.914V66.3631C13.8254 65.036 28.3919 60.6333 40.3668 54.5522C46.9552 51.2424 53.0363 47.1909 57.7669 42.3979C62.4975 47.1909 68.6176 51.2424 75.2061 54.5522C87.1809 60.6333 101.747 65.036 115.12 66.3631V31.914C115.12 25.0523 115.159 19.4084 112.715 14.7324C108.375 6.4734 96.9075 2.73419 88.227 5.38052C82.263 7.21499 77.2982 11.6958 75.5184 18.3155C74.043 23.8892 75.8697 30.0874 81.6385 32.1482C86.7906 34.0217 92.8405 29.9625 92.4502 24.3185C92.1769 19.8377 88.1099 16.8792 84.0428 17.8862C89.9756 12.5077 97.0637 13.2492 101.053 17.4568C103.652 20.1812 104.62 24.0063 104.62 28.0968V51.5546C92.4502 50.1105 74.121 43.7639 67.5326 33.8266C75.4793 23.1476 74.082 5.38053 57.7669 0.0800781C41.4518 5.38053 40.0545 23.1476 48.0013 33.8266ZM57.7669 28.2529C51.9903 22.0938 52.2635 12.3906 57.7669 10.4858C63.3094 12.3984 63.5826 22.1016 57.7669 28.2529Z" fill="#C4C4C4" fill-opacity="0.09"/>
<path fill-rule="evenodd" clip-rule="evenodd" d="M154.195 80.1205C160.745 82.1892 167.099 84.7574 172.993 87.755C177.645 90.0969 182.251 92.8604 186.443 96.0922C190.666 92.8604 195.28 90.0891 199.932 87.755C205.826 84.7574 212.18 82.1814 218.73 80.1205C212.18 78.0519 205.826 75.4836 199.932 72.525C195.28 70.1519 190.674 67.3807 186.443 64.1489C182.259 67.3807 177.645 70.1519 172.993 72.525C167.099 75.4836 160.745 78.0597 154.195 80.1205Z" fill="#C4C4C4" fill-opacity="0.09"/>
<path fill-rule="evenodd" clip-rule="evenodd" d="M176.667 126.409C170.118 116.51 151.75 110.156 139.619 108.72V132.139C139.619 136.229 140.587 140.046 143.186 142.778C147.175 146.986 154.271 147.728 160.196 142.349C156.09 143.364 152.062 140.437 151.75 135.917C151.398 130.265 157.448 126.253 162.6 128.087C168.377 130.195 170.196 136.346 168.72 141.92C166.941 148.586 161.937 153.067 156.012 154.855C147.292 157.501 135.864 153.762 131.524 145.503C129.08 140.827 129.119 135.214 129.119 128.321V93.8722C142.491 95.1992 157.058 99.641 169.033 105.683C175.621 108.993 181.702 113.044 186.433 117.876C191.163 113.044 197.284 108.993 203.872 105.683C215.847 99.641 230.413 95.1992 243.785 93.8722V128.321C243.785 135.222 243.824 140.827 241.381 145.503C237.041 153.762 225.573 157.501 216.893 154.855C210.929 153.059 205.964 148.578 204.184 141.92C202.709 136.346 204.536 130.187 210.304 128.087C215.456 126.253 221.506 130.273 221.116 135.917C220.843 140.437 216.776 143.356 212.709 142.349C218.641 147.728 225.73 146.986 229.719 142.778C232.318 140.054 233.286 136.229 233.286 132.139V108.72C221.116 110.164 202.787 116.51 196.198 126.409C204.145 137.088 202.748 154.855 186.433 160.155C170.118 154.855 168.72 137.088 176.667 126.409ZM186.433 131.982C180.656 138.142 180.929 147.845 186.433 149.788C191.975 147.837 192.248 138.134 186.433 131.982Z" fill="#C4C4C4" fill-opacity="0.09"/>
<path fill-rule="evenodd" clip-rule="evenodd" d="M176.667 33.8266C170.118 43.7639 151.75 50.1183 139.619 51.5546V28.0968C139.619 24.0063 140.587 20.189 143.186 17.4568C147.175 13.2492 154.271 12.5077 160.196 17.8862C156.09 16.8714 152.062 19.8377 151.75 24.3185C151.398 29.9703 157.448 34.0217 162.6 32.1482C168.377 30.0796 170.196 23.8892 168.721 18.3155C166.941 11.688 161.937 7.20718 156.012 5.38052C147.292 2.73419 135.864 6.4734 131.524 14.7324C129.08 19.4084 129.119 25.0523 129.119 31.914V66.3631C142.491 65.036 157.058 60.6333 169.033 54.5522C175.621 51.2424 181.702 47.1909 186.433 42.3979C191.164 47.1909 197.284 51.2424 203.872 54.5522C215.847 60.6333 230.413 65.036 243.786 66.3631V31.914C243.786 25.0523 243.825 19.4084 241.381 14.7324C237.041 6.4734 225.574 2.73419 216.893 5.38052C210.929 7.21499 205.964 11.6958 204.184 18.3155C202.709 23.8892 204.536 30.0874 210.305 32.1482C215.457 34.0217 221.506 29.9625 221.116 24.3185C220.843 19.8377 216.776 16.8792 212.709 17.8862C218.642 12.5077 225.73 13.2492 229.719 17.4568C232.318 20.1812 233.286 24.0063 233.286 28.0968V51.5546C221.116 50.1105 202.787 43.7639 196.199 33.8266C204.145 23.1476 202.748 5.38053 186.433 0.0800781C170.118 5.38053 168.721 23.1476 176.667 33.8266ZM186.433 28.2529C180.656 22.0938 180.93 12.3906 186.433 10.4858C191.975 12.3984 192.249 22.1016 186.433 28.2529Z" fill="#C4C4C4" fill-opacity="0.09"/>
<path fill-rule="evenodd" clip-rule="evenodd" d="M25.5292 249.732C32.0787 251.801 38.433 254.369 44.3267 257.366C48.9793 259.708 53.5849 262.472 57.7769 265.703C62.0001 262.472 66.6136 259.7 71.2661 257.366C77.1599 254.369 83.5142 251.793 90.0636 249.732C83.5142 247.663 77.1599 245.095 71.2661 242.136C66.6136 239.763 62.0079 236.992 57.7769 233.76C53.5928 236.992 48.9793 239.763 44.3267 242.136C38.433 245.095 32.0787 247.671 25.5292 249.732Z" fill="#C4C4C4" fill-opacity="0.09"/>
<path fill-rule="evenodd" clip-rule="evenodd" d="M48.0011 296.02C41.4517 286.122 23.0835 279.767 10.9526 278.331V301.75C10.9526 305.84 11.9206 309.658 14.5201 312.39C18.5091 316.597 25.605 317.339 31.5299 311.96C27.4238 312.975 23.3958 310.048 23.0835 305.528C22.7323 299.876 28.7821 295.864 33.9342 297.698C39.7109 299.806 41.5297 305.957 40.0544 311.531C38.2745 318.198 33.2707 322.678 27.3458 324.466C18.6262 327.112 7.19778 323.373 2.85749 315.114C0.414131 310.438 0.453162 304.825 0.453162 297.933V263.483C13.8253 264.811 28.3918 269.252 40.3666 275.294C46.9551 278.604 53.0362 282.656 57.7668 287.488C62.4974 282.656 68.6175 278.604 75.206 275.294C87.1808 269.252 101.747 264.811 115.119 263.483V297.933C115.119 304.833 115.158 310.438 112.715 315.114C108.375 323.373 96.9074 327.112 88.2268 324.466C82.2628 322.671 77.2981 318.19 75.5182 311.531C74.0428 305.957 75.8695 299.798 81.6383 297.698C86.7905 295.864 92.8403 299.884 92.45 305.528C92.1768 310.048 88.1097 312.967 84.0427 311.96C89.9754 317.339 97.0635 316.597 101.053 312.39C103.652 309.665 104.62 305.84 104.62 301.75V278.331C92.45 279.775 74.1209 286.122 67.5324 296.02C75.4792 306.699 74.0819 324.466 57.7668 329.766C41.4517 324.466 40.0544 306.699 48.0011 296.02ZM57.7668 301.594C51.9901 307.753 52.2634 317.456 57.7668 319.4C63.3092 317.448 63.5824 307.745 57.7668 301.594Z" fill="#C4C4C4" fill-opacity="0.09"/>
<path fill-rule="evenodd" clip-rule="evenodd" d="M48.0013 203.438C41.4518 213.375 23.0837 219.73 10.9527 221.166V197.708C10.9527 193.618 11.9207 189.8 14.5202 187.068C18.5092 182.861 25.6051 182.119 31.5301 187.498C27.424 186.483 23.3959 189.449 23.0837 193.93C22.7324 199.582 28.7823 203.633 33.9344 201.76C39.711 199.691 41.5299 193.501 40.0545 187.927C38.2747 181.299 33.2709 176.819 27.3459 174.992C18.6263 172.346 7.19792 176.085 2.85764 184.344C0.414275 189.02 0.453307 194.664 0.453307 201.525V235.974C13.8254 234.647 28.3919 230.245 40.3668 224.164C46.9552 220.854 53.0363 216.802 57.7669 212.009C62.4975 216.802 68.6176 220.854 75.2061 224.164C87.1809 230.245 101.747 234.647 115.12 235.974V201.525C115.12 194.664 115.159 189.02 112.715 184.344C108.375 176.085 96.9075 172.346 88.227 174.992C82.263 176.826 77.2982 181.307 75.5184 187.927C74.043 193.501 75.8697 199.699 81.6385 201.76C86.7906 203.633 92.8405 199.574 92.4502 193.93C92.1769 189.449 88.1099 186.49 84.0428 187.498C89.9756 182.119 97.0637 182.861 101.053 187.068C103.652 189.793 104.62 193.618 104.62 197.708V221.166C92.4502 219.722 74.121 213.375 67.5326 203.438C75.4793 192.759 74.082 174.992 57.7669 169.691C41.4518 174.992 40.0545 192.759 48.0013 203.438ZM57.7669 197.864C51.9903 191.705 52.2635 182.002 57.7669 180.097C63.3094 182.01 63.5826 191.713 57.7669 197.864Z" fill="#C4C4C4" fill-opacity="0.09"/>
<path fill-rule="evenodd" clip-rule="evenodd" d="M154.195 249.732C160.745 251.801 167.099 254.369 172.993 257.366C177.645 259.708 182.251 262.472 186.443 265.703C190.666 262.472 195.28 259.7 199.932 257.366C205.826 254.369 212.18 251.793 218.73 249.732C212.18 247.663 205.826 245.095 199.932 242.136C195.28 239.763 190.674 236.992 186.443 233.76C182.259 236.992 177.645 239.763 172.993 242.136C167.099 245.095 160.745 247.671 154.195 249.732Z" fill="#C4C4C4" fill-opacity="0.09"/>
<path fill-rule="evenodd" clip-rule="evenodd" d="M176.667 296.02C170.118 286.122 151.75 279.767 139.619 278.331V301.75C139.619 305.84 140.587 309.658 143.186 312.39C147.175 316.597 154.271 317.339 160.196 311.96C156.09 312.975 152.062 310.048 151.75 305.528C151.398 299.876 157.448 295.864 162.6 297.698C168.377 299.806 170.196 305.957 168.72 311.531C166.941 318.198 161.937 322.678 156.012 324.466C147.292 327.112 135.864 323.373 131.524 315.114C129.08 310.438 129.119 304.825 129.119 297.933V263.483C142.491 264.811 157.058 269.252 169.033 275.294C175.621 278.604 181.702 282.656 186.433 287.488C191.163 282.656 197.284 278.604 203.872 275.294C215.847 269.252 230.413 264.811 243.785 263.483V297.933C243.785 304.833 243.824 310.438 241.381 315.114C237.041 323.373 225.573 327.112 216.893 324.466C210.929 322.671 205.964 318.19 204.184 311.531C202.709 305.957 204.536 299.798 210.304 297.698C215.456 295.864 221.506 299.884 221.116 305.528C220.843 310.048 216.776 312.967 212.709 311.96C218.641 317.339 225.73 316.597 229.719 312.39C232.318 309.665 233.286 305.84 233.286 301.75V278.331C221.116 279.775 202.787 286.122 196.198 296.02C204.145 306.699 202.748 324.466 186.433 329.766C170.118 324.466 168.72 306.699 176.667 296.02ZM186.433 301.594C180.656 307.753 180.929 317.456 186.433 319.4C191.975 317.448 192.248 307.745 186.433 301.594Z" fill="#C4C4C4" fill-opacity="0.09"/>
<path fill-rule="evenodd" clip-rule="evenodd" d="M176.667 203.438C170.118 213.375 151.75 219.73 139.619 221.166V197.708C139.619 193.618 140.587 189.8 143.186 187.068C147.175 182.861 154.271 182.119 160.196 187.498C156.09 186.483 152.062 189.449 151.75 193.93C151.398 199.582 157.448 203.633 162.6 201.76C168.377 199.691 170.196 193.501 168.721 187.927C166.941 181.299 161.937 176.819 156.012 174.992C147.292 172.346 135.864 176.085 131.524 184.344C129.08 189.02 129.119 194.664 129.119 201.525V235.974C142.491 234.647 157.058 230.245 169.033 224.164C175.621 220.854 181.702 216.802 186.433 212.009C191.164 216.802 197.284 220.854 203.872 224.164C215.847 230.245 230.413 234.647 243.786 235.974V201.525C243.786 194.664 243.825 189.02 241.381 184.344C237.041 176.085 225.574 172.346 216.893 174.992C210.929 176.826 205.964 181.307 204.184 187.927C202.709 193.501 204.536 199.699 210.305 201.76C215.457 203.633 221.506 199.574 221.116 193.93C220.843 189.449 216.776 186.49 212.709 187.498C218.642 182.119 225.73 182.861 229.719 187.068C232.318 189.793 233.286 193.618 233.286 197.708V221.166C221.116 219.722 202.787 213.375 196.199 203.438C204.145 192.759 202.748 174.992 186.433 169.691C170.118 174.992 168.721 192.759 176.667 203.438ZM186.433 197.864C180.656 191.705 180.93 182.002 186.433 180.097C191.975 182.01 192.249 191.713 186.433 197.864Z" fill="#C4C4C4" fill-opacity="0.09"/>
</svg>
