<svg width="95" height="92" viewBox="0 0 95 92" fill="none" xmlns="http://www.w3.org/2000/svg">
<path d="M79.2804 63.7732L70.8808 43.7904C70.6667 43.3089 70.2922 42.9343 69.8107 42.7471C69.57 42.6401 69.3292 42.5866 69.0618 42.5866C68.8209 42.5866 68.5535 42.6401 68.3126 42.7471L51.4596 49.8361C50.9514 50.0234 50.5768 50.4245 50.3895 50.906C50.1757 51.3875 50.2023 51.9226 50.3895 52.4041L58.7893 72.387C59.0034 72.8685 59.3779 73.2431 59.8594 73.457C60.3409 73.6442 60.876 73.6442 61.3575 73.4304L78.2373 66.3413C78.7188 66.154 79.0933 65.7795 79.2804 65.2712C79.4945 64.7897 79.4677 64.2547 79.2804 63.7732ZM79.2804 63.7732L70.8808 43.7904C70.6667 43.3089 70.2922 42.9343 69.8107 42.7471C69.57 42.6401 69.3292 42.5866 69.0618 42.5866C68.8209 42.5866 68.5535 42.6401 68.3126 42.7471L51.4596 49.8361C50.9514 50.0234 50.5768 50.4245 50.3895 50.906C50.1757 51.3875 50.2023 51.9226 50.3895 52.4041L58.7893 72.387C59.0034 72.8685 59.3779 73.2431 59.8594 73.457C60.3409 73.6442 60.876 73.6442 61.3575 73.4304L78.2373 66.3413C78.7188 66.154 79.0933 65.7795 79.2804 65.2712C79.4945 64.7897 79.4677 64.2547 79.2804 63.7732ZM93.7527 66.3145L73.5291 18.163C72.5661 15.8625 70.7203 14.0434 68.4464 13.1071L48.089 4.73406C44.5579 3.26279 40.5453 4.73405 38.8066 8.02452C40.8663 9.57612 42.6319 11.4753 44.0496 13.562C44.5043 13.1071 45.0394 12.7327 45.6548 12.4651C48.3031 11.3684 51.3527 12.5988 52.4762 15.2473C53.5729 17.8956 52.3425 20.9452 49.694 22.0687C49.1323 22.2828 48.5705 22.4165 48.0088 22.4433C48.4368 24.2623 48.6508 26.1348 48.6508 28.0609C48.6508 37.1829 43.7286 45.5559 35.9442 49.9966L50.4699 84.5051C51.8608 87.8223 55.7129 89.4006 59.0302 88.0095L90.2216 74.9016C93.5922 73.4837 95.1704 69.6316 93.7527 66.3145ZM81.7684 66.2878C81.2867 67.438 80.4041 68.3476 79.2538 68.8291L62.4007 75.8914C61.839 76.1588 61.2236 76.2659 60.6084 76.2659C60.02 76.2659 59.4046 76.1588 58.8429 75.9182C57.6927 75.4633 56.8098 74.5538 56.3283 73.4304L47.9285 53.4474C46.9388 51.0933 48.0355 48.3648 50.4164 47.3749L67.2693 40.286C69.6234 39.2963 72.3521 40.4198 73.3418 42.7738L81.7416 62.73C82.2231 63.8803 82.2231 65.1375 81.7684 66.2878ZM70.8808 43.7904C70.6667 43.3089 70.2922 42.9343 69.8107 42.7471C69.57 42.6401 69.3292 42.5866 69.0618 42.5866C68.8209 42.5866 68.5535 42.6401 68.3126 42.7471L51.4596 49.8361C50.9514 50.0234 50.5768 50.4245 50.3895 50.906C50.1757 51.3875 50.2023 51.9226 50.3895 52.4041L58.7893 72.387C59.0034 72.8685 59.3779 73.2431 59.8594 73.457C60.3409 73.6442 60.876 73.6442 61.3575 73.4304L78.2373 66.3413C78.7188 66.154 79.0933 65.7795 79.2804 65.2712C79.4945 64.7897 79.4677 64.2547 79.2804 63.7732L70.8808 43.7904ZM79.2804 63.7732L70.8808 43.7904C70.6667 43.3089 70.2922 42.9343 69.8107 42.7471C69.57 42.6401 69.3292 42.5866 69.0618 42.5866C68.8209 42.5866 68.5535 42.6401 68.3126 42.7471L51.4596 49.8361C50.9514 50.0234 50.5768 50.4245 50.3895 50.906C50.1757 51.3875 50.2023 51.9226 50.3895 52.4041L58.7893 72.387C59.0034 72.8685 59.3779 73.2431 59.8594 73.457C60.3409 73.6442 60.876 73.6442 61.3575 73.4304L78.2373 66.3413C78.7188 66.154 79.0933 65.7795 79.2804 65.2712C79.4945 64.7897 79.4677 64.2547 79.2804 63.7732ZM79.2804 63.7732L70.8808 43.7904C70.6667 43.3089 70.2922 42.9343 69.8107 42.7471C69.57 42.6401 69.3292 42.5866 69.0618 42.5866C68.8209 42.5866 68.5535 42.6401 68.3126 42.7471L51.4596 49.8361C50.9514 50.0234 50.5768 50.4245 50.3895 50.906C50.1757 51.3875 50.2023 51.9226 50.3895 52.4041L58.7893 72.387C59.0034 72.8685 59.3779 73.2431 59.8594 73.457C60.3409 73.6442 60.876 73.6442 61.3575 73.4304L78.2373 66.3413C78.7188 66.154 79.0933 65.7795 79.2804 65.2712C79.4945 64.7897 79.4677 64.2547 79.2804 63.7732ZM28.9889 6.12514C28.6947 6.33919 28.4004 6.55324 28.1328 6.79391C25.6182 8.93395 24.1737 11.8499 24.2807 14.5249V14.6051C27.8922 15.1134 30.6208 18.3503 30.3264 22.1489C30.059 25.5463 27.3035 28.3017 23.9063 28.5959C19.5727 28.9437 15.988 25.359 16.309 21.0254C16.5498 17.9757 18.7434 15.4612 21.6324 14.7656C21.6056 14.7122 21.6056 14.6586 21.6056 14.6051C21.4719 11.3951 22.9166 8.13145 25.5649 5.50991C23.9597 5.34942 22.328 5.37619 20.6426 5.56347C10.5309 6.71375 2.23803 14.8192 0.873719 24.8775C-0.597549 35.4709 5.28767 44.8603 14.1422 48.7928V81.9371C14.1422 82.6059 14.383 83.2747 14.8645 83.7829L20.4821 89.9623C22.007 91.6209 24.6019 91.6209 26.1265 89.9623L32.0117 83.5421C32.306 83.1943 32.4932 82.7396 32.4932 82.2849V78.941C32.4932 78.1919 32.199 77.4964 31.6907 76.9881L28.5609 73.8047L31.236 71.0762C31.9316 70.3539 31.9316 69.2304 31.236 68.5081L28.5609 65.8062L31.236 63.0778C31.9316 62.3822 31.9316 61.232 31.236 60.5364L28.5609 57.8078L31.6907 54.5976C32.199 54.0893 32.4932 53.3938 32.4932 52.6716V48.7927C40.4383 45.2616 45.9758 37.3167 45.9758 28.0608C45.9758 17.521 38.753 8.63972 28.9889 6.12514ZM27.4107 20.1158C27.6246 20.6776 27.7049 21.2928 27.6513 21.935C27.6246 22.3629 27.5176 22.7642 27.3571 23.1386C25.0298 22.0419 23.2375 20.2497 22.3012 18.0025C22.221 17.8152 22.1407 17.6014 22.0873 17.4141C21.8197 16.558 21.6592 15.702 21.6324 14.7656C22.007 14.6586 22.3815 14.6051 22.7561 14.5785C23.2643 14.5249 23.7724 14.5517 24.2807 14.6051C24.3075 15.4612 24.468 16.237 24.789 16.9592C24.8693 17.1732 24.9762 17.3873 25.0833 17.6014C25.6182 18.5911 26.4209 19.447 27.4107 20.1158ZM42.8994 1.76475C41.5886 2.08575 40.358 2.64757 39.2881 3.47684C37.0677 3.12907 34.5799 3.39651 32.199 4.35966C32.1189 4.35966 32.0117 4.41305 31.9316 4.43983C30.8883 4.89471 29.8985 5.45637 28.9889 6.12514C27.8654 5.83093 26.7151 5.61685 25.5649 5.50991C25.8323 5.24231 26.0999 4.97488 26.3941 4.73404C27.0361 4.19915 27.7317 3.69089 28.4806 3.236C29.2565 2.75451 30.059 2.32657 30.8882 1.97878C34.981 0.266711 39.4218 0.239926 42.8994 1.76475ZM48.2763 14.8192C47.8482 15.8893 47.2597 16.9326 46.5106 17.8956C46.2164 17.2268 45.8954 16.558 45.5477 15.9427C45.8153 15.5147 46.1897 15.1402 46.6713 14.9263C46.9923 14.7924 47.3133 14.739 47.6611 14.739C47.875 14.739 48.0622 14.7656 48.2763 14.8192Z" fill="#F39E91"/>
</svg>
