<svg width="92" height="92" viewBox="0 0 92 92" fill="none" xmlns="http://www.w3.org/2000/svg">
<path d="M87.4081 30.9074H76.0896V12.0431C76.0827 5.79485 71.0192 0.731442 64.771 0.724609H11.9513C5.70305 0.731442 0.639645 5.79485 0.632812 12.0431V79.9541C0.639645 86.2023 5.70305 91.2658 11.9513 91.2726H79.8623C86.1105 91.2658 91.174 86.2023 91.1808 79.9541V34.6802C91.1809 32.5965 89.4917 30.9074 87.4081 30.9074ZM53.4525 68.6356H23.2698C21.186 68.6356 19.4969 66.9465 19.4969 64.8628C19.4969 62.7791 21.186 61.09 23.2698 61.09H53.4525C55.5363 61.09 57.2254 62.7791 57.2254 64.8628C57.2254 66.9465 55.5363 68.6356 53.4525 68.6356ZM53.4525 49.7715H23.2698C21.186 49.7715 19.4969 48.0824 19.4969 45.9987C19.4969 43.9149 21.186 42.2258 23.2698 42.2258H53.4525C55.5363 42.2258 57.2254 43.9149 57.2254 45.9987C57.2254 48.0824 55.5363 49.7715 53.4525 49.7715ZM53.4525 30.9074H23.2698C21.186 30.9074 19.4969 29.2183 19.4969 27.1345C19.4969 25.0508 21.186 23.3617 23.2698 23.3617H53.4525C55.5363 23.3617 57.2254 25.0508 57.2254 27.1345C57.2254 29.2181 55.5363 30.9074 53.4525 30.9074ZM83.6351 79.9541C83.6331 82.0369 81.9452 83.7249 79.8623 83.7269H76.0895V38.453H83.6351V79.9541Z" fill="#92CA7C"/>
</svg>
