<svg width="91" height="91" viewBox="0 0 91 91" fill="none" xmlns="http://www.w3.org/2000/svg">
<path d="M54.2117 25.1596C54.2117 29.7393 50.4862 33.4648 45.9065 33.4648C41.3268 33.4648 37.6013 29.7393 37.6013 25.1596C37.6013 20.5799 41.3268 16.8545 45.9065 16.8545C50.4862 16.8545 54.2117 20.5799 54.2117 25.1596ZM70.822 25.1596C70.822 39.4209 55.6931 58.4521 49.1893 65.9725C48.3636 66.9264 47.1672 67.4733 45.9065 67.4733C44.6459 67.4733 43.4494 66.9264 42.6237 65.9725C36.1199 58.4521 20.991 39.4209 20.991 25.1596C20.991 11.4212 32.168 0.244141 45.9065 0.244141C59.645 0.244141 70.822 11.4212 70.822 25.1596ZM56.5846 25.1596C56.5846 19.2713 51.7948 14.4816 45.9065 14.4816C40.0182 14.4816 35.2284 19.2713 35.2284 25.1596C35.2284 31.0479 40.0182 35.8377 45.9065 35.8377C51.7948 35.8377 56.5846 31.0479 56.5846 25.1596ZM65.744 47.1327C60.8242 55.6752 54.6072 63.3476 50.9845 67.5239C49.9721 68.6945 48.5958 69.4697 47.093 69.7228V90.7941L66.9304 82.2991L65.744 47.1327ZM40.8285 67.5239C37.2059 63.3476 30.9889 55.6752 26.069 47.1327L24.8826 82.2991L44.7201 90.7941V69.7228C43.2172 69.4697 41.8409 68.6945 40.8285 67.5239ZM20.469 35.1416L8.31972 43.9847C7.38637 44.6649 6.73778 45.7248 6.57959 46.8796L0.83716 87.0608C0.694786 88.0732 1.09027 89.0382 1.89706 89.6552C2.70384 90.2721 3.7321 90.3987 4.66544 90.0032L22.5097 82.3466L23.8227 43.0197C22.4939 40.4095 21.339 37.7677 20.469 35.1416ZM90.9759 87.0608L85.2334 46.8796C85.0752 45.7248 84.4266 44.6649 83.4933 43.9847L71.344 35.1416C70.474 37.7677 69.3192 40.4095 67.9903 43.0197L69.3033 82.3466L87.1476 90.0032C88.0809 90.3987 89.1092 90.2721 89.916 89.6552C90.7227 89.0382 91.1182 88.0732 90.9759 87.0608Z" fill="#92CA7C"/>
</svg>
