<svg width="98" height="91" viewBox="0 0 98 91" fill="none" xmlns="http://www.w3.org/2000/svg">
<path d="M85.8152 22.7316L86.3608 44.938C86.4381 48.0885 84.7906 51.0246 82.0617 52.5999L41.0958 76.2513L65.4061 90.2378C65.9249 90.5362 66.4979 90.6544 67.0527 90.612C67.9657 90.542 68.8296 90.0369 69.321 89.1838L96.1957 42.5404C96.7202 41.6301 96.7051 40.5062 96.1564 39.6107L85.8152 22.7316Z" fill="#F39E91"/>
<path d="M31.3774 31.8377C31.2632 31.7717 31.0594 31.6817 30.7994 31.6817C30.7059 31.6817 30.605 31.6933 30.4983 31.7218C30.0949 31.8299 29.8844 32.1065 29.7948 32.2617C29.7051 32.417 29.5711 32.7376 29.6791 33.1408C29.8445 33.7579 30.4805 34.1256 31.0981 33.9602C31.5015 33.8522 31.712 33.5756 31.8016 33.4203C31.8913 33.2651 32.0255 32.9445 31.9173 32.5413C31.8091 32.1379 31.5326 31.9274 31.3774 31.8377Z" fill="#F39E91"/>
<path d="M53.0527 42.6071C52.4356 42.7725 52.0683 43.4091 52.2335 44.0263C52.3415 44.4297 52.6181 44.6402 52.7732 44.7298C52.9284 44.8193 53.2491 44.9535 53.6525 44.8455C54.2696 44.6801 54.6371 44.0435 54.4719 43.4265C54.3063 42.8094 53.6697 42.4417 53.0527 42.6071Z" fill="#F39E91"/>
<path d="M80.627 45.0787L79.9479 17.4343C79.924 16.4602 79.4071 15.5649 78.5754 15.0571L75.9797 13.4722C74.9825 14.5472 74.3713 15.9849 74.3713 17.5633C74.3713 18.4334 74.5649 19.3105 74.9314 20.0998C76.9293 24.402 75.0548 29.5278 70.7522 31.5265C69.6077 32.0579 68.3891 32.3275 67.1306 32.3275C63.7946 32.3275 60.731 30.3728 59.3256 27.3474C57.9118 24.3031 57.1647 20.9199 57.1647 17.5635C57.1647 12.7067 58.664 8.19413 61.2226 4.46202L54.9741 0.646938C54.5156 0.367044 53.9977 0.226715 53.4794 0.226715C52.9848 0.226715 52.4897 0.354618 52.0457 0.610996L1.43428 29.8314C0.0627228 30.6233 -0.407208 32.3772 0.384677 33.7488L24.6651 75.8036C25.1962 76.7238 26.1601 77.2379 27.1512 77.2379C27.6376 77.2379 28.1309 77.114 28.5824 76.8532L79.1939 47.6328C80.103 47.108 80.6526 46.1283 80.627 45.0787ZM30.7996 39.7359C27.7558 39.7359 24.9631 37.7019 24.1388 34.6254C23.6621 32.8466 23.9068 30.9888 24.8276 29.394C25.7483 27.7993 27.235 26.6585 29.0138 26.1819C30.7925 25.7055 32.6503 25.95 34.2449 26.8705C35.8398 27.7913 36.9806 29.2779 37.457 31.0567C37.9337 32.8355 37.6891 34.6932 36.7684 36.2881C35.8476 37.8829 34.361 39.0237 32.5822 39.5002C31.9871 39.6598 31.3885 39.7359 30.7996 39.7359ZM38.2434 55.4834C37.9977 55.4834 37.748 55.4514 37.4993 55.3849C35.9694 54.975 35.0617 53.4025 35.4716 51.8727L43.1526 23.2067C43.5625 21.677 45.1342 20.7689 46.6649 21.179C48.1947 21.5889 49.1025 23.1614 48.6926 24.6912L41.0115 53.3572C40.6684 54.6383 39.5096 55.4834 38.2434 55.4834ZM55.137 50.3856C54.5416 50.5451 53.943 50.6214 53.3542 50.6214C50.3104 50.6214 47.5177 48.5874 46.6935 45.5108C45.7097 41.8389 47.8965 38.0512 51.5683 37.0672H51.5685C55.2402 36.0829 59.0282 38.2703 60.012 41.942C60.9956 45.6139 58.8087 49.4016 55.137 50.3856Z" fill="#F39E91"/>
<path d="M67.1304 26.5921C67.5347 26.5921 67.9454 26.5062 68.3364 26.3246C69.7728 25.6574 70.3964 23.9522 69.7294 22.5156C69.0137 20.9749 68.6356 19.2624 68.6356 17.5636C68.6356 11.0803 73.9102 5.80567 80.3935 5.80567C86.8767 5.80567 92.1514 11.0803 92.1514 17.5636C92.1514 18.8116 91.9588 20.0189 91.599 21.155L95.1518 26.954C96.9438 24.1466 97.8869 20.9263 97.8869 17.5637C97.8869 7.91789 90.0393 0.0703125 80.3935 0.0703125C70.7476 0.0703125 62.9 7.91789 62.9 17.5637C62.9 20.0916 63.4627 22.6393 64.5274 24.9318C65.0132 25.977 66.0489 26.5921 67.1304 26.5921Z" fill="#F39E91"/>
</svg>
