<svg width="87" height="91" viewBox="0 0 87 91" fill="none" xmlns="http://www.w3.org/2000/svg">
<path d="M73.7089 0.244141H20.3127C13.1819 0.244141 7.38106 5.96011 7.38106 12.9777V15.8244H4.55703C2.21122 15.8244 0.3125 17.7231 0.3125 20.0689C0.3125 22.4147 2.21122 24.3135 4.55703 24.3135H7.38106V41.2831H4.55703C2.21122 41.2831 0.3125 43.1818 0.3125 45.5276C0.3125 47.8734 2.21122 49.7722 4.55703 49.7722H7.38106V66.7418H4.55703C2.21122 66.7418 0.3125 68.6405 0.3125 70.9863C0.3125 73.3321 2.21122 75.2309 4.55703 75.2309H7.38106V78.0605C7.38106 85.0782 13.1819 90.7941 20.3127 90.7941H73.7089C80.8397 90.7941 86.6123 85.0782 86.6123 78.0605V12.9777C86.6123 5.96011 80.8397 0.244141 73.7089 0.244141ZM46.9967 18.7427C53.2835 18.7427 58.3858 23.8678 58.3858 30.1318C58.3858 36.4186 53.2835 41.5209 46.9967 41.5209C40.7327 41.5209 35.6076 36.4186 35.6076 30.1318C35.6076 23.8678 40.7327 18.7427 46.9967 18.7427ZM58.3858 70.3893H35.6076C31.8492 70.3893 28.7741 67.337 28.7741 63.5558C28.7741 53.5106 36.9515 45.3332 46.9967 45.3332C57.0647 45.3332 65.2193 53.5106 65.2193 63.5558C65.2193 67.337 62.167 70.3893 58.3858 70.3893Z" fill="#92CA7C"/>
</svg>
