<svg width="84" height="91" viewBox="0 0 84 91" fill="none" xmlns="http://www.w3.org/2000/svg">
<path d="M17.5306 3.5531V15.7424C17.5306 17.658 19.0978 19.2252 21.0134 19.2252C22.9289 19.2252 24.4962 17.658 24.4962 15.7424V3.5531C24.4959 1.63755 22.9286 0.0703125 21.0134 0.0703125C19.0981 0.0703125 17.5306 1.63755 17.5306 3.5531Z" fill="#F39E91"/>
<path d="M59.3229 3.5531V15.7424C59.3229 17.658 60.8902 19.2252 62.8057 19.2252C64.7213 19.2252 66.2885 17.658 66.2885 15.7424V3.5531C66.2882 1.63755 64.721 0.0703125 62.8054 0.0703125C60.8899 0.0703125 59.3229 1.63755 59.3229 3.5531Z" fill="#F39E91"/>
<path d="M9.10244 90.6203H74.7164C79.6791 90.6203 83.7016 86.5978 83.7016 81.6351V19.5037C83.7016 14.5409 79.6791 10.5184 74.7164 10.5184H69.771V15.7424C69.771 19.5909 66.6539 22.7077 62.8057 22.7077C58.9575 22.7077 55.8404 19.5907 55.8404 15.7424V10.5184H27.9789V15.7424C27.9789 19.5909 24.8619 22.7077 21.0136 22.7077C17.1654 22.7077 14.0478 19.5907 14.0478 15.7424V10.5184H9.10244C4.1397 10.5184 0.117188 14.5409 0.117188 19.5037V81.6348C0.117188 86.5978 4.1397 90.6203 9.10244 90.6203ZM22.1102 48.0617C23.4684 46.7036 25.68 46.7036 27.0381 48.0617L37.608 58.6316L58.539 37.7007C59.8972 36.3425 62.1088 36.3425 63.467 37.7007C64.8251 39.0588 64.8251 41.2705 63.467 42.6286L40.0633 66.0149C39.3841 66.6941 38.4961 67.0424 37.608 67.0424C36.72 67.0424 35.832 66.6941 35.1528 66.0149L22.1276 52.9897C20.7347 51.6315 20.7347 49.4202 22.1102 48.0617Z" fill="#F39E91"/>
</svg>
