<svg width="103" height="92" viewBox="0 0 103 92" fill="none" xmlns="http://www.w3.org/2000/svg">
<path d="M53.5185 22.5233C53.5185 28.9881 58.514 34.2775 64.3911 34.2775C70.2681 34.2775 75.5575 28.9881 75.5575 22.5233V0.484375H53.5185V22.5233Z" fill="#F39E91"/>
<path d="M95.8334 0.484375H79.9653V22.5233C79.9653 28.9881 84.9608 34.2775 91.1317 34.2775C97.3026 34.2775 102.298 28.9881 102.298 22.5233L98.478 2.54135C97.8903 1.36593 97.0088 0.484375 95.8334 0.484375Z" fill="#F39E91"/>
<path d="M4.44509 2.54135L0.625 22.8172C0.625 28.9881 5.6205 34.2775 11.7914 34.2775C17.9623 34.2775 22.9578 28.9881 22.9578 22.5233V0.484375H6.50206C5.32665 0.484375 4.44509 1.36593 4.44509 2.54135Z" fill="#F39E91"/>
<path d="M27.0718 22.5233C27.0718 28.9881 32.0673 34.2775 38.2382 34.2775C44.4091 34.2775 49.4046 28.9881 49.4046 22.5233V0.484375H27.3656L27.0718 22.5233Z" fill="#F39E91"/>
<path d="M90.8378 38.6853C85.5485 38.6853 80.8468 36.3344 77.6145 32.8082C74.3821 36.3344 69.6804 38.6853 64.3911 38.6853C59.1017 38.6853 54.4001 36.3344 51.1677 32.8082C47.9353 36.3344 43.2337 38.6853 37.9443 38.6853C32.655 38.6853 27.9533 36.3344 24.7209 32.8082C21.4886 36.3344 16.7869 38.6853 11.4976 38.6853C10.0283 38.6853 8.55903 38.6853 7.08976 38.0975V88.4623C7.08976 89.8828 8.24131 91.0344 9.66182 91.0344H20.3131V53.9363C20.3131 52.5158 21.4647 51.3642 22.8852 51.3642H39.7801C41.2006 51.3642 42.3521 52.5158 42.3521 53.9363V91.0344H92.6736C94.0941 91.0344 95.2456 89.8828 95.2456 88.4623V38.0975C93.7764 38.6853 92.3071 38.6853 90.8378 38.6853ZM83.858 68.9954H62.5554C61.1348 68.9954 59.9833 67.8439 59.9833 66.4234V53.9363C59.9833 52.5158 61.1348 51.3642 62.5554 51.3642H83.858C85.2785 51.3642 86.43 52.5158 86.43 53.9363V66.4234C86.43 67.8439 85.2785 68.9954 83.858 68.9954Z" fill="#F39E91"/>
</svg>
