<svg width="92" height="92" viewBox="0 0 92 92" fill="none" xmlns="http://www.w3.org/2000/svg">
<path d="M24.3666 21.7152H14.9933C7.09418 21.7152 0.667969 28.1414 0.667969 36.0405V50.3658C0.667969 58.2649 7.09418 64.6911 14.9933 64.6911H24.3666V21.7152Z" fill="#92CA7C"/>
<path d="M62.87 43.1016C62.87 31.8864 63.9062 21.2337 65.7895 13.1059C66.2489 11.1211 66.7484 9.32631 67.2907 7.70767C61.8102 11.8949 56.8555 14.9249 52.0258 17.0658C45.4 20.0026 38.0667 21.5141 29.6723 21.6682V64.6627C38.0736 64.8161 45.411 66.3201 52.0258 69.2513C56.8679 71.3978 61.8358 74.4395 67.3446 78.6544C66.7815 76.9936 66.2641 75.1476 65.7895 73.0972C63.9062 64.9695 62.87 54.3167 62.87 43.1016Z" fill="#92CA7C"/>
<path d="M75.6547 43.1582C75.6547 38.7893 72.5991 34.9545 68.4195 33.9072C68.2585 36.8916 68.1756 39.9714 68.1756 43.1016C68.1756 46.2705 68.2606 49.3875 68.4257 52.4072C72.6364 51.3516 75.6547 47.5209 75.6547 43.1582Z" fill="#92CA7C"/>
<path d="M88.4353 14.3031C86.3379 5.24758 83.3976 0.65625 79.6968 0.65625C75.996 0.65625 73.0557 5.24758 70.9577 14.3031C69.9988 18.444 69.2699 23.2951 68.7995 28.5663C72.0975 29.1742 75.1158 30.8999 77.3355 33.4616C79.6733 36.1607 80.9604 39.6045 80.9604 43.1582C80.9604 50.1426 75.9932 56.2524 69.1504 57.6845C69.0357 57.7087 68.9217 57.7225 68.8078 57.7308C69.2789 62.966 70.0043 67.7833 70.9584 71.9C73.0557 80.9555 75.996 85.5469 79.6968 85.5469C83.3976 85.5469 86.3379 80.9555 88.4353 71.9C90.2294 64.1529 91.218 53.9257 91.218 43.1016C91.218 32.2775 90.2294 22.0502 88.4353 14.3031Z" fill="#92CA7C"/>
<path d="M27.845 69.9525C27.568 69.9822 27.2944 69.9967 27.0194 69.9967H16.4081V82.5403C16.4081 87.3189 20.2955 91.2063 25.074 91.2063H25.3303C29.0871 91.2063 32.3127 88.8857 33.5472 85.2947L38.5454 70.758C35.3158 70.2185 31.8913 69.9511 28.2332 69.9511C28.1041 69.9511 27.9749 69.9518 27.845 69.9525Z" fill="#92CA7C"/>
</svg>
