<svg width="92" height="92" viewBox="0 0 92 92" fill="none" xmlns="http://www.w3.org/2000/svg">
<path d="M45.9429 0.482422C41.1887 0.482422 36.756 2.74546 33.4612 6.8547C30.304 10.7924 28.5651 15.9935 28.5651 21.5003C28.5651 27.007 30.304 32.2082 33.4612 36.1459C36.134 39.4794 39.5556 41.5978 43.2901 42.2789V49.118C43.2901 50.5831 44.4779 51.7709 45.9429 51.7709C47.408 51.7709 48.5958 50.5831 48.5958 49.118V42.2789C52.3302 41.5978 55.7519 39.4792 58.4247 36.1459C61.5819 32.2082 63.3207 27.007 63.3207 21.5003C63.3207 15.9935 61.5819 10.7924 58.4247 6.8547C55.1299 2.74546 50.6972 0.482422 45.9429 0.482422Z" fill="#F39E91"/>
<path d="M60.6543 69.0343L52.6583 67.5777L48.2366 59.9683C47.7617 59.151 46.888 58.6482 45.9429 58.6482C44.9978 58.6482 44.1241 59.151 43.6493 59.9683L39.2276 67.5777L31.2316 69.0343C30.2357 69.2155 29.4298 69.9481 29.1542 70.9222C28.8787 71.8963 29.1816 72.9422 29.935 73.6184L35.978 79.0418L34.5264 87.953C34.364 88.9496 34.7814 89.9518 35.6031 90.5385C36.4247 91.1251 37.5082 91.1946 38.3981 90.7178L45.9429 86.6731L53.4879 90.7178C53.8809 90.9283 54.3117 91.0324 54.741 91.0324C55.2836 91.0324 55.824 90.8662 56.2828 90.5385C57.1045 89.9518 57.5218 88.9496 57.3595 87.953L55.9078 79.0418L61.9508 73.6184C62.7042 72.9422 63.0072 71.8963 62.7316 70.9222C62.4561 69.9481 61.6503 69.2157 60.6543 69.0343Z" fill="#F39E91"/>
<path d="M24.915 61.5149L19.2951 60.4911L16.1739 55.1202C15.699 54.3029 14.8254 53.8001 13.8803 53.8001C12.9352 53.8001 12.0615 54.3029 11.5866 55.1202L8.46548 60.4911L2.84555 61.5149C1.84967 61.6962 1.04374 62.4287 0.768202 63.4028C0.492661 64.3769 0.795615 65.4229 1.54902 66.099L5.75252 69.8715L4.73595 76.1115C4.5736 77.1081 4.99098 78.1103 5.81265 78.6969C6.63432 79.2837 7.71774 79.3532 8.60767 78.8761L13.8803 76.0496L19.1529 78.8761C19.546 79.0867 19.9767 79.1909 20.4061 79.1909C20.9487 79.1909 21.4891 79.0247 21.9479 78.6969C22.7696 78.1103 23.1869 77.1081 23.0246 76.1115L22.008 69.8715L26.2115 66.099C26.9649 65.4229 27.2679 64.3769 26.9923 63.4028C26.7168 62.4287 25.9109 61.6962 24.915 61.5149Z" fill="#F39E91"/>
<path d="M91.1177 63.4026C90.8421 62.4285 90.0362 61.6962 89.0403 61.5147L83.4204 60.4909L80.2994 55.12C79.8245 54.3027 78.9509 53.7999 78.0058 53.7999C77.0606 53.7999 76.1868 54.3029 75.7121 55.12L72.591 60.4909L66.971 61.5147C65.9752 61.696 65.1692 62.4285 64.8937 63.4026C64.6182 64.3768 64.9211 65.4227 65.6745 66.0988L69.878 69.8713L68.8615 76.1113C68.6991 77.1079 69.1165 78.1101 69.9381 78.6968C70.3969 79.0245 70.9372 79.1907 71.48 79.1907C71.9092 79.1907 72.3402 79.0865 72.7332 78.8759L78.0058 76.0494L83.2784 78.8759C84.1681 79.3529 85.2515 79.2836 86.0734 78.6968C86.8951 78.1101 87.3124 77.1079 87.1501 76.1113L86.1335 69.8713L90.337 66.0988C91.0902 65.4227 91.3932 64.3768 91.1177 63.4026Z" fill="#F39E91"/>
<path d="M23.345 40.0422C22.4118 38.9129 20.7398 38.7538 19.6102 39.6865C18.4806 40.6196 18.3215 42.2918 19.2546 43.4213L23.6597 48.7537C24.1842 49.3886 24.9424 49.7169 25.7064 49.7169C26.3014 49.7169 26.9 49.5177 27.3945 49.1092C28.5241 48.1761 28.6832 46.5039 27.7502 45.3744L23.345 40.0422Z" fill="#F39E91"/>
<path d="M68.226 48.7537L72.6311 43.4213C73.5642 42.2918 73.4049 40.6196 72.2755 39.6865C71.1462 38.7534 69.4739 38.9129 68.5406 40.0422L64.1355 45.3745C63.2024 46.5041 63.3618 48.1763 64.4912 49.1094C64.9857 49.5181 65.5841 49.717 66.1793 49.717C66.9433 49.717 67.7015 49.3886 68.226 48.7537Z" fill="#F39E91"/>
<path d="M9.77651 28.1714V31.5932C9.77651 33.0583 10.9643 34.2461 12.4293 34.2461C13.8944 34.2461 15.0822 33.0583 15.0822 31.5932V28.1714C17.3058 27.5707 19.3279 26.2121 20.9398 24.2017C23.0361 21.5871 24.1908 18.145 24.1908 14.5094C24.1908 10.8737 23.0363 7.4316 20.9398 4.81697C18.7058 2.03097 15.6833 0.496393 12.4293 0.496393C9.17538 0.496393 6.15292 2.03097 3.91888 4.81715C1.82261 7.43178 0.668102 10.8739 0.668102 14.5094C0.668102 18.1448 1.82261 21.5871 3.91906 24.2017C5.53074 26.2121 7.55309 27.5707 9.77651 28.1714Z" fill="#F39E91"/>
<path d="M76.8037 28.1714V31.5932C76.8037 33.0583 77.9914 34.2461 79.4565 34.2461C80.9216 34.2461 82.1093 33.0583 82.1093 31.5932V28.1714C84.3328 27.5707 86.3551 26.2121 87.967 24.2017C90.0632 21.5871 91.2179 18.145 91.2179 14.5094C91.2179 10.8737 90.0634 7.4316 87.967 4.81697C85.7329 2.03079 82.7106 0.496217 79.4567 0.496217C76.2027 0.496217 73.1803 2.03079 70.9462 4.81697C68.85 7.4316 67.6953 10.8737 67.6953 14.5094C67.6953 18.145 68.8498 21.5871 70.9462 24.2017C72.5579 26.2121 74.5803 27.5707 76.8037 28.1714Z" fill="#F39E91"/>
</svg>
