<svg width="92" height="92" viewBox="0 0 92 92" fill="none" xmlns="http://www.w3.org/2000/svg">
<path d="M75.3853 28.0318C73.6585 28.0318 72.2266 26.5999 72.2266 24.8731C72.2266 23.1463 73.6585 21.7144 75.3853 21.7144H91.1789V5.92078C91.1789 3.01476 88.8204 0.65625 85.9144 0.65625H57.4016L57.4859 24.8731C57.4859 25.7154 57.149 26.5156 56.5593 27.1053C55.9697 27.6949 55.1695 28.0318 54.3272 28.0318H45.9039C44.1771 28.0318 42.7452 26.5999 42.7452 24.8731C42.7452 23.1463 44.1771 21.7144 45.9039 21.7144H51.1684L51.0842 0.65625H5.89344C2.98742 0.65625 0.628906 3.01476 0.628906 5.92078V21.7144H24.8458C26.5725 21.7144 28.0045 23.1463 28.0045 24.8731C28.0045 26.5999 26.5725 28.0318 24.8458 28.0318H0.628906V51.28L33.269 51.1958C34.1113 51.1958 34.9116 51.5327 35.5012 52.1223C36.0908 52.712 36.4277 53.5122 36.4277 54.3545V62.7778C36.4277 64.5045 34.9958 65.9365 33.269 65.9365C31.5423 65.9365 30.1103 64.5045 30.1103 62.7778V57.5132L0.628906 57.5975V85.9417C0.628906 88.8477 2.98742 91.2063 5.89344 91.2063H30.1103V79.6243C30.1103 77.8975 31.5423 76.4656 33.269 76.4656C34.9958 76.4656 36.4277 77.8975 36.4277 79.6243V91.2063H52.2213C55.1274 91.2063 57.4859 88.8477 57.4859 85.9417V57.5132H85.9144C88.8204 57.5132 91.1789 55.1547 91.1789 52.2487V28.0318H75.3853Z" fill="#92CA7C"/>
</svg>
