<svg width="91" height="91" viewBox="0 0 91 91" fill="none" xmlns="http://www.w3.org/2000/svg">
<path d="M24.063 0.0703125C22.5967 0.0703125 21.4102 1.25684 21.4102 2.72314V21.293H16.1045V2.72314C16.1045 1.25684 14.918 0.0703125 13.4517 0.0703125C11.9854 0.0703125 10.7988 1.25684 10.7988 2.72314V21.293H5.49316V2.72314C5.49316 1.25684 4.30664 0.0703125 2.84033 0.0703125C1.37402 0.0703125 0.1875 1.25684 0.1875 2.72314C0.1875 14.5164 0.1875 17.451 0.1875 29.2515C0.1875 33.64 3.7575 37.3868 8.146 37.3868H18.7573C23.1458 37.3868 26.7158 33.64 26.7158 29.2515C26.7158 17.4469 26.7158 14.5229 26.7158 2.72314C26.7158 1.25684 25.5293 0.0703125 24.063 0.0703125Z" fill="#92CA7C"/>
<path d="M64.2092 55.9566V30.3706C64.2092 30.3632 64.2104 30.3561 64.2104 30.3487C59.8317 24.8743 53.002 21.293 45.4625 21.293C40.6365 21.293 35.8897 22.7214 32.0215 25.323V29.2515C32.0215 34.6767 28.739 39.5154 24.063 41.5682V56.0539C28.0044 63.8278 36.1659 69.2208 45.4625 69.2208C53.4206 69.2208 60.6118 65.2697 64.9523 59.2665C64.4863 58.2556 64.2092 57.1409 64.2092 55.9566Z" fill="#92CA7C"/>
<path d="M72.1677 63.9151C70.9352 63.9151 69.7817 63.6097 68.7393 63.1074C63.399 70.0363 54.8666 74.5265 45.4625 74.5265C37.0979 74.5265 29.3885 70.9692 24.063 65.3118V79.1417C30.21 83.0307 37.6506 85.3147 45.4625 85.3147C57.009 85.3147 67.5514 80.1899 74.8205 72.3345V63.9151H72.1677Z" fill="#92CA7C"/>
<path d="M45.4625 5.37598C40.8041 5.37598 36.176 6.21763 32.0215 7.68854V19.1693C36.0591 17.1038 40.7491 15.9873 45.4625 15.9873C52.8556 15.9873 59.7717 18.7733 64.9194 23.3215C65.6076 19.5753 66.7653 15.9572 68.4479 12.591C61.9861 8.05834 53.9549 5.37598 45.4625 5.37598Z" fill="#92CA7C"/>
<path d="M89.3359 0.3837C88.4784 -0.0773619 87.4292 -0.0255432 86.6131 0.515811C74.5142 8.58184 69.5148 19.0071 69.5148 30.3706V55.9566C69.5148 57.423 70.7014 58.6095 72.1677 58.6095H80.1262V85.3147C80.1262 88.2446 82.5015 90.6203 85.4318 90.6203C88.3622 90.6203 90.7375 88.2446 90.7375 85.3147C90.7375 42.8923 90.7375 44.3482 90.7375 2.72314C90.7375 1.7439 90.1986 0.844939 89.3359 0.3837Z" fill="#92CA7C"/>
<path d="M8.146 42.6925V85.3147C8.146 88.2446 10.5213 90.6203 13.4517 90.6203C16.382 90.6203 18.7573 88.2446 18.7573 85.3147V42.6925H8.146Z" fill="#92CA7C"/>
</svg>
