<svg width="163" height="38" viewBox="0 0 163 38" fill="none" xmlns="http://www.w3.org/2000/svg">
<path d="M41.3483 1.45849V36.9834H33.2283V4.04674L28.6609 36.9834H13.3851L8.86841 4.04674V36.9834H0.74843V1.45849H16.6331L21.1499 34.3952L25.7174 1.45849H41.3483ZM71.7943 36.9834H47.4343V1.45849H71.7943V9.07098H56.0618V15.4147H71.2868V23.0272H56.0618V29.3709H71.7943V36.9834ZM85.0051 36.9834H76.3776V1.45849H85.0051V15.4147H99.215V1.45849H107.843V36.9834H99.215V23.0272H85.0051V36.9834ZM144.115 0.950997C149.224 0.950997 153.504 2.71033 156.955 6.22898C160.406 9.71381 162.131 14.0445 162.131 19.2209C162.131 24.3974 160.406 28.745 156.955 32.2637C153.504 35.7485 149.224 37.4909 144.115 37.4909C139.683 37.4909 135.843 36.1376 132.595 33.4309C129.347 30.7242 127.3 27.2563 126.454 23.0272H121.531V36.9834H112.904V1.45849H121.531V15.4147H126.454C127.3 11.1856 129.347 7.71765 132.595 5.01098C135.843 2.30433 139.683 0.950997 144.115 0.950997ZM137.162 26.6304C138.955 28.5928 141.188 29.5739 143.861 29.5739C146.534 29.5739 148.75 28.5928 150.509 26.6304C152.302 24.6343 153.199 22.1644 153.199 19.2209C153.199 16.2775 152.302 13.8245 150.509 11.8622C148.75 9.86606 146.534 8.86798 143.861 8.86798C141.188 8.86798 138.955 9.86606 137.162 11.8622C135.403 13.8245 134.523 16.2775 134.523 19.2209C134.523 22.1644 135.403 24.6343 137.162 26.6304Z" fill="#F39E91"/>
</svg>
