<svg width="20" height="20" viewBox="0 0 20 20" fill="none" xmlns="http://www.w3.org/2000/svg">
<path d="M2.71007 2.35749H6.88008L8.22417 5.71772L6.06495 7.1572C5.80658 7.32944 5.65139 7.61942 5.65139 7.92995V7.93186L5.6514 7.93393L5.65142 7.93862L5.65156 7.95008C5.6517 7.95864 5.65193 7.96904 5.65232 7.98121C5.65311 8.00556 5.65453 8.03703 5.65707 8.07517C5.66215 8.15142 5.67174 8.25449 5.68975 8.38055C5.72573 8.63252 5.7956 8.97767 5.93123 9.38457C6.20357 10.2015 6.73869 11.2594 7.7809 12.3017C8.8231 13.3439 9.88095 13.8789 10.698 14.1513C11.1049 14.2869 11.45 14.3568 11.702 14.3928C11.8281 14.4108 11.9311 14.4203 12.0074 14.4255C12.0455 14.428 12.077 14.4295 12.1013 14.4303C12.1135 14.4306 12.124 14.4308 12.1324 14.4309L12.1439 14.4312H12.1486H12.1507C12.1507 14.4312 12.2554 14.4255 12.1526 14.4312C12.5043 14.4312 12.826 14.2324 12.9832 13.9177L13.6052 12.6738L17.7251 13.3605V17.3725C15.7643 17.656 10.4692 17.9354 6.30811 13.7744C2.14705 9.61338 2.42652 4.31816 2.71007 2.35749ZM7.57727 8.3814L9.25452 7.26324C9.98538 6.77599 10.275 5.84341 9.9488 5.02786L8.60471 1.66764C8.32263 0.962425 7.63962 0.5 6.88008 0.5H2.66155C1.81778 0.5 1.02353 1.08619 0.885026 2.00169C0.569892 4.0845 0.140953 10.2342 4.99467 15.0879C9.84838 19.9416 15.998 19.5127 18.0808 19.1975C18.9964 19.059 19.5826 18.2648 19.5826 17.421V13.3605C19.5826 12.4524 18.926 11.6775 18.0304 11.5282L13.9106 10.8416C13.1063 10.7075 12.3085 11.1138 11.9439 11.8431L11.6221 12.4867C11.5209 12.4618 11.408 12.4301 11.2854 12.3892C10.7092 12.1972 9.90963 11.8035 9.09434 10.9882C8.27906 10.1729 7.88543 9.37328 7.6934 8.79718C7.64151 8.64152 7.60415 8.50154 7.57727 8.3814Z" fill="#F39E91"/>
</svg>
