<svg width="84" height="20" viewBox="0 0 84 20" fill="none" xmlns="http://www.w3.org/2000/svg">
<path d="M2.71007 2.35749H6.88008L8.22417 5.71772L6.06495 7.1572C5.80658 7.32944 5.65139 7.61942 5.65139 7.92995V7.93186L5.6514 7.93393L5.65142 7.93862L5.65156 7.95008C5.6517 7.95864 5.65193 7.96904 5.65232 7.98121C5.65311 8.00556 5.65453 8.03703 5.65707 8.07517C5.66215 8.15142 5.67174 8.25449 5.68975 8.38055C5.72573 8.63252 5.7956 8.97767 5.93123 9.38457C6.20357 10.2015 6.73869 11.2594 7.7809 12.3017C8.8231 13.3439 9.88095 13.8789 10.698 14.1513C11.1049 14.2869 11.45 14.3568 11.702 14.3928C11.8281 14.4108 11.9311 14.4203 12.0074 14.4255C12.0455 14.428 12.077 14.4295 12.1013 14.4303C12.1135 14.4306 12.124 14.4308 12.1324 14.4309L12.1439 14.4312H12.1486H12.1507C12.1507 14.4312 12.2554 14.4255 12.1526 14.4312C12.5043 14.4312 12.826 14.2324 12.9832 13.9177L13.6052 12.6738L17.7251 13.3605V17.3725C15.7643 17.656 10.4692 17.9354 6.30811 13.7744C2.14705 9.61338 2.42652 4.31816 2.71007 2.35749ZM7.57727 8.3814L9.25452 7.26324C9.98538 6.77599 10.275 5.84341 9.9488 5.02786L8.60471 1.66764C8.32263 0.962425 7.63962 0.5 6.88008 0.5H2.66155C1.81778 0.5 1.02353 1.08619 0.885026 2.00169C0.569892 4.0845 0.140953 10.2342 4.99467 15.0879C9.84838 19.9416 15.998 19.5127 18.0808 19.1975C18.9964 19.059 19.5826 18.2648 19.5826 17.421V13.3605C19.5826 12.4524 18.926 11.6775 18.0304 11.5282L13.9106 10.8416C13.1063 10.7075 12.3085 11.1138 11.9439 11.8431L11.6221 12.4867C11.5209 12.4618 11.408 12.4301 11.2854 12.3892C10.7092 12.1972 9.90963 11.8035 9.09434 10.9882C8.27906 10.1729 7.88543 9.37328 7.6934 8.79718C7.64151 8.64152 7.60415 8.50154 7.57727 8.3814Z" fill="#F39E91"/>
<path d="M26.0938 1.91281H37.5544V4.43414L35.6748 8.4912H37.5544V11.3793H34.3454L31.2969 17.9577H27.6982L30.8384 11.3793H26.0938V8.4912H32.2137L33.9557 4.8238H26.0938V1.91281Z" fill="#F39E91"/>
<path d="M42.7879 15.826C41.5501 14.2521 40.9313 12.2885 40.9313 9.93523C40.9313 7.58199 41.5501 5.6184 42.7879 4.04448C44.0409 2.47056 45.6148 1.68359 47.5097 1.68359C49.4045 1.68359 50.9708 2.47056 52.2085 4.04448C53.4463 5.6184 54.0651 7.58199 54.0651 9.93523C54.0651 12.2885 53.4463 14.2521 52.2085 15.826C50.9708 17.3999 49.4045 18.1869 47.5097 18.1869C45.6148 18.1869 44.0409 17.3999 42.7879 15.826ZM45.2175 6.17615C44.6216 7.16941 44.3236 8.42243 44.3236 9.93523C44.3236 11.448 44.6216 12.7011 45.2175 13.6943C45.8288 14.6876 46.5928 15.1842 47.5097 15.1842C48.4265 15.1842 49.1829 14.6876 49.7789 13.6943C50.3748 12.7011 50.6728 11.448 50.6728 9.93523C50.6728 8.42243 50.3748 7.16941 49.7789 6.17615C49.1829 5.1829 48.4265 4.68627 47.5097 4.68627C46.5928 4.68627 45.8288 5.1829 45.2175 6.17615Z" fill="#F39E91"/>
<path d="M64.7908 1.68359V15.0467H68.4582V17.9577H57.1351V15.0467H61.5131V5.39683L57.1351 6.54289V3.65482L64.7908 1.68359Z" fill="#F39E91"/>
<path d="M72.6993 15.826C71.4616 14.2521 70.8427 12.2885 70.8427 9.93523C70.8427 7.58199 71.4616 5.6184 72.6993 4.04448C73.9523 2.47056 75.5263 1.68359 77.4211 1.68359C79.3159 1.68359 80.8822 2.47056 82.1199 4.04448C83.3577 5.6184 83.9766 7.58199 83.9766 9.93523C83.9766 12.2885 83.3577 14.2521 82.1199 15.826C80.8822 17.3999 79.3159 18.1869 77.4211 18.1869C75.5263 18.1869 73.9523 17.3999 72.6993 15.826ZM75.129 6.17615C74.533 7.16941 74.235 8.42243 74.235 9.93523C74.235 11.448 74.533 12.7011 75.129 13.6943C75.7402 14.6876 76.5042 15.1842 77.4211 15.1842C78.3379 15.1842 79.0943 14.6876 79.6903 13.6943C80.2862 12.7011 80.5842 11.448 80.5842 9.93523C80.5842 8.42243 80.2862 7.16941 79.6903 6.17615C79.0943 5.1829 78.3379 4.68627 77.4211 4.68627C76.5042 4.68627 75.7402 5.1829 75.129 6.17615Z" fill="#F39E91"/>
</svg>
