<svg width="107" height="105" viewBox="0 0 107 105" fill="none" xmlns="http://www.w3.org/2000/svg">
<path d="M0.148433 5.56713L0.148437 99.6743C0.148437 102.811 2.26788 104.902 5.44718 104.902L37.2401 104.902C40.4194 104.902 42.5389 102.811 42.5389 99.6743L42.5389 89.2178L31.9414 89.2178L31.9414 94.4459L10.7462 94.4459L10.7462 10.7952L31.9414 10.7952L31.9414 16.0233L42.5391 16.0233L42.5391 5.56689C42.5391 2.42998 40.4197 0.338797 37.2404 0.338797L5.44717 0.338798C2.26788 0.338798 0.148433 2.43023 0.148433 5.56713Z" fill="#92CA7C"/>
<path d="M26.6426 78.7614L100.826 78.7614C104.006 78.7614 106.125 76.6702 106.125 73.5333L106.125 68.3052L21.3436 68.3052L21.3436 73.5333C21.3436 76.6702 23.4633 78.7614 26.6426 78.7614Z" fill="#92CA7C"/>
<path d="M21.3436 31.7078L21.3436 57.8488L106.125 57.8488L106.125 31.7078C106.125 29.0939 103.476 26.4797 100.826 26.4797L26.6426 26.4797C23.4633 26.4797 21.3436 29.0939 21.3436 31.7078ZM58.4356 42.1643C58.4356 44.7784 55.7861 47.3924 53.1368 47.3924C50.4876 47.3924 47.8378 44.7784 47.8378 42.1643C47.8378 39.5501 50.4873 36.9362 53.1366 36.9362C55.7858 36.9362 58.4356 39.5501 58.4356 42.1643ZM42.5391 42.1643C42.5391 44.7784 39.8896 47.3924 37.2404 47.3924C34.5911 47.3924 31.9414 44.7784 31.9414 42.1643C31.9414 39.5501 34.5909 36.9362 37.2401 36.9362C39.8894 36.9362 42.5391 39.5501 42.5391 42.1643Z" fill="#92CA7C"/>
</svg>
