<svg width="113" height="105" viewBox="0 0 113 105" fill="none" xmlns="http://www.w3.org/2000/svg">
<path d="M23.2006 69.1147C24.0913 85.006 31.315 94.3007 36.3191 98.8883V69.1147H23.2006Z" fill="#F39E91"/>
<path d="M42.9058 69.1147V98.882C44.2186 97.6816 45.6799 96.1655 47.1336 94.3009C52.5045 87.4107 55.4892 78.95 56.028 69.1147H42.9058Z" fill="#F39E91"/>
<path d="M32.0913 37.3422C26.7203 44.2324 23.7359 52.693 23.1968 62.528H36.3191V32.7609C35.0065 33.9613 33.5451 35.4774 32.0913 37.3422Z" fill="#F39E91"/>
<path d="M73.5226 45.3612L65.2158 62.5282H79.0764C78.5622 56.2825 76.5983 50.448 73.5226 45.3612Z" fill="#F39E91"/>
<path d="M46.029 26.7395C47.752 28.1855 49.7617 30.1185 51.7759 32.5995L52.6401 28.4168C50.513 27.6761 48.3037 27.1103 46.029 26.7395Z" fill="#F39E91"/>
<path d="M62.6195 69.1149C61.8985 83.3629 56.5946 92.9746 52.0921 98.6508C49.9731 101.322 47.8423 103.382 46.029 104.903C63.7876 102.009 77.5785 87.305 79.0764 69.1149H62.6195Z" fill="#F39E91"/>
<path d="M27.1328 98.6508C22.6302 92.9746 17.3261 83.3632 16.6054 69.1147H0.148438C1.64637 87.3048 15.437 102.009 33.1958 104.903C31.3825 103.382 29.2518 101.322 27.1328 98.6508Z" fill="#F39E91"/>
<path d="M48.0509 50.6287L49.9459 41.4562C49.0953 40.0287 48.1583 38.6566 47.1336 37.3422C45.6799 35.4774 44.2186 33.9615 42.9058 32.7609V62.5278H55.7318L48.0509 50.6287Z" fill="#F39E91"/>
<path d="M0.148438 62.528H16.6054C17.3261 48.2801 22.6302 38.6687 27.1328 32.9925C29.2518 30.3209 31.3828 28.2612 33.196 26.7395C15.4372 29.6334 1.64637 44.3378 0.148438 62.528Z" fill="#F39E91"/>
<path d="M107.21 38.5373L94.1143 38.9855C90.6185 34.0437 86.0639 28.284 81.8241 23.1917L106.694 11.158L98.4952 5.866L71.4699 11.4497L62.6068 2.58659C59.6111 -0.40907 54.7544 -0.40907 51.7587 2.58659C48.7631 5.58224 48.7631 10.439 51.7587 13.4346L60.6218 22.2977L55.0384 49.3231L60.3302 57.5215L72.3639 32.6519C77.4561 36.8918 83.2159 41.4466 88.1577 44.9422L87.7095 58.0377L91.6 63.2503L97.9913 48.8189L112.422 42.4279L107.21 38.5373Z" fill="#F39E91"/>
</svg>
