<svg width="102" height="102" viewBox="0 0 102 102" fill="none" xmlns="http://www.w3.org/2000/svg">
<path d="M63.3133 37.8602C63.3102 39.9533 62.4773 41.9597 60.9972 43.4397C59.5172 44.9198 57.5108 45.7526 55.4177 45.7558H42.2584V29.9646H55.4177C56.455 29.9632 57.4823 30.1665 58.4409 30.5628C59.3994 30.9591 60.2704 31.5406 61.0038 32.2741C61.7373 33.0075 62.3188 33.8785 62.7151 34.837C63.1114 35.7956 63.3147 36.8229 63.3133 37.8602ZM93.1412 10.6642V91.3749C93.1398 91.8398 92.9545 92.2853 92.6258 92.6141C92.297 92.9428 91.8515 93.1281 91.3866 93.1294H10.6759C10.211 93.1281 9.76548 92.9428 9.43672 92.6141C9.10797 92.2853 8.92268 91.8398 8.92134 91.3749V10.6642C8.92268 10.1993 9.10797 9.75376 9.43672 9.425C9.76548 9.09625 10.211 8.91096 10.6759 8.90962H91.3866C91.8515 8.91096 92.297 9.09625 92.6258 9.425C92.9545 9.75376 93.1398 10.1993 93.1412 10.6642ZM73.8408 37.8602C73.8335 32.9763 71.8901 28.2946 68.4367 24.8412C64.9833 21.3878 60.3016 19.4444 55.4177 19.4371H31.7309V82.602H42.2584V56.2833H55.4177C57.8371 56.2836 60.2329 55.8073 62.4683 54.8815C64.7036 53.9558 66.7347 52.5987 68.4455 50.8879C70.1563 49.1771 71.5133 47.1461 72.439 44.9107C73.3648 42.6754 73.8411 40.2796 73.8408 37.8602ZM101.914 10.6642V91.3749C101.912 94.1662 100.802 96.8427 98.8282 98.8165C96.8544 100.79 94.178 101.9 91.3866 101.902H10.6759C7.88454 101.9 5.20813 100.79 3.23433 98.8165C1.26053 96.8427 0.150668 94.1662 0.148438 91.3749V10.6642C0.150668 7.87282 1.26053 5.19641 3.23433 3.22261C5.20813 1.24881 7.88454 0.138949 10.6759 0.136719H91.3866C94.178 0.138949 96.8544 1.24881 98.8282 3.22261C100.802 5.19641 101.912 7.87282 101.914 10.6642ZM96.6503 10.6642C96.6463 9.26942 96.0904 7.93293 95.1041 6.94667C94.1179 5.96041 92.7814 5.40453 91.3866 5.40046H10.6759C9.28114 5.40453 7.94465 5.96041 6.95839 6.94667C5.97213 7.93293 5.41625 9.26942 5.41218 10.6642V91.3749C5.41625 92.7696 5.97213 94.1061 6.95839 95.0924C7.94465 96.0787 9.28114 96.6345 10.6759 96.6386H91.3866C92.7814 96.6345 94.1179 96.0787 95.1041 95.0924C96.0904 94.1061 96.6463 92.7696 96.6503 91.3749V10.6642Z" fill="#F39E91"/>
</svg>
