<svg width="100" height="105" viewBox="0 0 100 105" fill="none" xmlns="http://www.w3.org/2000/svg">
<path d="M62.25 36.3856C62.2823 35.815 62.3004 35.2419 62.3004 34.6715C62.3004 17.8602 48.3598 4.18313 31.2243 4.18313C14.089 4.18313 0.148438 17.8602 0.148438 34.6715C0.148438 51.4831 14.089 65.1601 31.2243 65.1601C31.8057 65.1601 32.3915 65.1411 32.9718 65.1095C35.3601 50.3866 47.243 38.7285 62.25 36.3856ZM32.8875 21.1511H29.5611C24.6574 21.1511 20.6016 24.7692 20.014 29.4264H29.5611C30.6764 29.4264 31.5807 30.3135 31.5807 31.4078C31.5807 32.502 30.6764 33.3892 29.5611 33.3892H19.938V35.9535H29.5611C30.6764 35.9535 31.5807 36.8406 31.5807 37.9349C31.5807 39.0291 30.6764 39.9163 29.5611 39.9163H20.014C20.6016 44.5739 24.6574 48.1917 29.5611 48.1917H32.8875C34.0029 48.1917 34.9071 49.0789 34.9071 50.1731C34.9071 51.2674 34.0029 52.1546 32.8875 52.1546H29.5611C22.4282 52.1546 16.5583 46.763 15.9538 39.9161H12.9288C11.8134 39.9161 10.9092 39.0289 10.9092 37.9347C10.9092 36.8404 11.8134 35.9533 12.9288 35.9533H15.8988V33.389H12.9288C11.8134 33.389 10.9092 32.5018 10.9092 31.4076C10.9092 30.3133 11.8134 29.4262 12.9288 29.4262H15.9536C16.5581 22.5795 22.4282 17.1881 29.5609 17.1881H32.8873C39.55 17.1881 45.2109 21.8561 46.3477 28.2872C46.5386 29.3655 45.8021 30.3909 44.703 30.578C43.6056 30.7655 42.5583 30.0425 42.3681 28.9644C41.5679 24.4373 37.5806 21.1511 32.8875 21.1511Z" fill="#F39E91"/>
<path d="M67.8153 39.9165C50.5869 39.9165 36.5703 53.6681 36.5703 70.5707C36.5703 87.4733 50.5869 101.225 67.8153 101.225C85.0436 101.225 99.06 87.4733 99.06 70.5707C99.06 53.6681 85.0438 39.9165 67.8153 39.9165ZM79.8141 63.2277C79.8141 64.322 78.9099 65.2091 77.7945 65.2091C76.6792 65.2091 75.7749 64.322 75.7749 63.2277V61.596C75.7749 59.0895 73.6965 57.0501 71.1419 57.0501H64.4888C61.9341 57.0501 59.8553 59.0893 59.8553 61.596V64.0434C59.8553 66.5499 61.9338 68.5893 64.4888 68.5893H71.1419C75.924 68.5893 79.8143 72.4061 79.8143 77.0978V79.5456C79.8143 84.2373 75.924 88.0541 71.1419 88.0541H69.8351V90.968C69.8351 92.0623 68.9308 92.9494 67.8155 92.9494C66.7001 92.9494 65.7959 92.0623 65.7959 90.968V88.0541H64.489C59.7069 88.0541 55.8164 84.2373 55.8164 79.5456V77.9137C55.8164 76.8194 56.7206 75.9323 57.836 75.9323C58.9513 75.9323 59.8556 76.8194 59.8556 77.9137V79.5456C59.8556 82.0521 61.9341 84.0913 64.489 84.0913H71.1421C73.6967 84.0913 75.7752 82.0523 75.7752 79.5456V77.0978C75.7752 74.5915 73.6967 72.5523 71.1421 72.5523H64.489C59.7069 72.5523 55.8164 68.7353 55.8164 64.0436V61.5962C55.8164 56.9045 59.7069 53.0875 64.489 53.0875H65.7959V50.1736C65.7959 49.0793 66.7001 48.1922 67.8155 48.1922C68.9308 48.1922 69.8351 49.0793 69.8351 50.1736V53.0875H71.1419C75.924 53.0875 79.8143 56.9045 79.8143 61.5962L79.8141 63.2277Z" fill="#F39E91"/>
<path d="M35.0031 93.8909L34.8788 93.9118L34.9975 93.855C34.9958 93.8421 34.9937 93.8297 34.9912 93.8172C34.9792 93.758 34.964 93.7002 34.9471 93.6442L34.94 93.6177C34.9221 93.5601 34.9011 93.5037 34.8784 93.4486L34.8692 93.4245C34.8474 93.373 34.8226 93.323 34.7908 93.2617L34.7787 93.2372C34.7548 93.1939 34.7283 93.1522 34.6913 93.0932C34.6844 93.0818 34.6775 93.0706 34.6702 93.0603C34.65 93.0305 34.6278 93.0021 34.5918 92.9558L34.5761 92.9352C34.5664 92.9217 34.5562 92.908 34.5443 92.8941C34.5266 92.8729 34.5072 92.8524 34.4883 92.8324L34.4452 92.7857C34.4321 92.7712 34.4188 92.7565 34.4048 92.7426L25.6726 84.1759C24.8358 83.3555 23.4745 83.3555 22.6378 84.1759C22.2326 84.5735 22.0094 85.1024 22.0094 85.6649C22.0094 86.2273 22.2326 86.7561 22.6378 87.1533L27.7066 92.1262H14.5922C11.19 92.1262 8.42184 89.4104 8.42184 86.0725V68.123C8.42184 66.9622 7.45909 66.0177 6.2759 66.0177C5.0927 66.0177 4.12995 66.9622 4.12995 68.123V86.0725C4.12995 91.7321 8.82317 96.3368 14.592 96.3368H27.707L22.6381 101.31C21.8017 102.131 21.8017 103.466 22.6381 104.287C23.0436 104.685 23.5825 104.903 24.1556 104.903C24.7286 104.903 25.2673 104.685 25.6731 104.287L34.405 95.7198C34.4202 95.7049 34.4346 95.6891 34.449 95.673L34.4852 95.6338C34.5054 95.6124 34.5256 95.5909 34.5445 95.5685C34.5562 95.555 34.5668 95.5405 34.5774 95.5262L34.6072 95.487C34.6288 95.4594 34.6505 95.4316 34.6702 95.4028C34.6777 95.392 34.6844 95.3808 34.7015 95.3522C34.7281 95.3105 34.7548 95.2693 34.7795 95.2239L34.7964 95.1896C34.8226 95.14 34.8474 95.09 34.8688 95.0387L34.8782 95.014C34.9009 94.9586 34.9219 94.9027 34.9398 94.8451L34.9465 94.8194C34.9637 94.7622 34.9789 94.7042 34.9908 94.646C34.9935 94.6333 34.9956 94.62 34.9973 94.6067L34.8724 94.5906L35.0035 94.5694C35.011 94.5271 35.0181 94.485 35.0224 94.4411C35.0295 94.3715 35.0333 94.3012 35.0333 94.231C35.0333 94.1603 35.0295 94.0903 35.0224 94.02C35.0183 93.9771 35.0108 93.9338 35.0031 93.8909Z" fill="#F39E91"/>
<path d="M84.4476 8.90547H71.3324L76.4013 3.93255C77.2377 3.11156 77.2377 1.77591 76.4013 0.955128C75.5645 0.134749 74.2031 0.134749 73.3665 0.955128L64.6345 9.52244C64.6193 9.53735 64.605 9.55307 64.5906 9.56921L64.5577 9.60474C64.5361 9.62741 64.5144 9.65028 64.4949 9.67377C64.4838 9.68704 64.4734 9.70052 64.4632 9.71441L64.4364 9.74933C64.4133 9.77915 64.3904 9.80876 64.3687 9.83981L64.3387 9.88841C64.3113 9.93048 64.2844 9.97317 64.2607 10.0167L64.243 10.0526C64.2172 10.102 64.1922 10.1521 64.1703 10.2035L64.1608 10.2287C64.1383 10.284 64.1171 10.34 64.0996 10.3965L64.0929 10.4225C64.0756 10.4796 64.06 10.5379 64.0484 10.5965C64.0459 10.6081 64.0442 10.62 64.0425 10.6318L64.1678 10.6479L64.0382 10.6598C64.03 10.7065 64.0221 10.7533 64.0171 10.8011C64.0101 10.8707 64.0063 10.941 64.0063 11.0112C64.0063 11.0819 64.0101 11.152 64.0171 11.2216C64.0221 11.2692 64.03 11.3162 64.0382 11.3629L64.1626 11.3421L64.0425 11.3909L64.0481 11.4254C64.0602 11.4846 64.0758 11.5424 64.0925 11.599L64.0993 11.6247C64.117 11.6823 64.1383 11.7387 64.161 11.7943L64.1703 11.819C64.1922 11.8704 64.2172 11.9203 64.2469 11.9781L64.2605 12.0048C64.2846 12.0493 64.3115 12.0916 64.3477 12.1486L64.3687 12.1825C64.3897 12.2129 64.4124 12.2423 64.4484 12.2883L64.4634 12.3083C64.4736 12.3222 64.4838 12.3357 64.4944 12.3481C64.5134 12.3708 64.5336 12.3924 64.5542 12.4137L64.5942 12.457C64.6073 12.4715 64.6206 12.4862 64.6345 12.5001L73.3665 21.0668C73.772 21.4642 74.311 21.6831 74.884 21.6831C75.4569 21.6831 75.9958 21.4642 76.4015 21.0668C76.8068 20.6691 77.03 20.1402 77.03 19.5777C77.03 19.0153 76.8068 18.4866 76.4015 18.0893L71.3326 13.1164H84.4478C87.85 13.1164 90.618 15.8322 90.618 19.1701V37.1196C90.618 38.2804 91.5807 39.225 92.7639 39.225C93.9471 39.225 94.9098 38.2804 94.9098 37.1196V19.1701C94.9094 13.51 90.2164 8.90547 84.4476 8.90547Z" fill="#F39E91"/>
</svg>
