<svg width="105" height="105" viewBox="0 0 105 105" fill="none" xmlns="http://www.w3.org/2000/svg">
<path d="M94.2556 14.2816H59.4011C56.6279 14.2816 53.9683 15.3833 52.0073 17.3442C50.0464 19.3052 48.9447 21.9648 48.9447 24.738V94.447C48.9447 97.2202 50.0464 99.8798 52.0073 101.841C53.9683 103.802 56.6279 104.903 59.4011 104.903H94.2556C97.0288 104.903 99.6884 103.802 101.649 101.841C103.61 99.8798 104.712 97.2202 104.712 94.447V24.738C104.712 21.9648 103.61 19.3052 101.649 17.3442C99.6884 15.3833 97.0288 14.2816 94.2556 14.2816ZM80.3138 94.447H73.3429C72.4185 94.447 71.5319 94.0798 70.8783 93.4261C70.2246 92.7725 69.8574 91.8859 69.8574 90.9615C69.8574 90.0371 70.2246 89.1506 70.8783 88.4969C71.5319 87.8433 72.4185 87.4761 73.3429 87.4761H80.3138C81.2382 87.4761 82.1247 87.8433 82.7784 88.4969C83.432 89.1506 83.7992 90.0371 83.7992 90.9615C83.7992 91.8859 83.432 92.7725 82.7784 93.4261C82.1247 94.0798 81.2382 94.447 80.3138 94.447Z" fill="#F39E91"/>
<path d="M41.9738 94.447V24.738C41.9794 20.1177 43.8172 15.6882 47.0843 12.4212C50.3513 9.15413 54.7808 7.31628 59.4011 7.31074H76.187C75.4687 5.27904 74.1402 3.51889 72.3833 2.27109C70.6264 1.02328 68.5269 0.348777 66.372 0.339844H10.6048C7.83159 0.339844 5.17198 1.44149 3.21103 3.40244C1.25009 5.36338 0.148438 8.023 0.148438 10.7962V94.447C0.148438 97.2202 1.25009 99.8798 3.21103 101.841C5.17198 103.802 7.83159 104.903 10.6048 104.903H45.5499C43.2432 101.904 41.9866 98.2303 41.9738 94.447ZM35.0029 94.447H28.032C27.1076 94.447 26.2211 94.0798 25.5674 93.4261C24.9138 92.7725 24.5466 91.8859 24.5466 90.9615C24.5466 90.0371 24.9138 89.1506 25.5674 88.4969C26.2211 87.8433 27.1076 87.4761 28.032 87.4761H35.0029C35.9273 87.4761 36.8139 87.8433 37.4675 88.4969C38.1212 89.1506 38.4884 90.0371 38.4884 90.9615C38.4884 91.8859 38.1212 92.7725 37.4675 93.4261C36.8139 94.0798 35.9273 94.447 35.0029 94.447Z" fill="#F39E91"/>
</svg>
