<svg width="15" height="16" viewBox="0 0 15 16" fill="none" xmlns="http://www.w3.org/2000/svg">
<path fill-rule="evenodd" clip-rule="evenodd" d="M3.68105 0.890921C2.31519 1.18304 1.21813 2.14695 0.741805 3.47342C0.529731 4.06414 0.53125 4.03172 0.53125 7.93317C0.53125 11.8346 0.529731 11.8022 0.741805 12.3929C0.959808 13 1.26727 13.4779 1.72658 13.9236C2.31515 14.4948 2.97668 14.8425 3.75557 14.9903C4.21214 15.0769 11.08 15.0769 11.5366 14.9903C12.9235 14.7272 14.0656 13.7428 14.5504 12.3929C14.7625 11.8022 14.7609 11.8346 14.7609 7.93317C14.7609 4.84151 14.753 4.30493 14.7032 4.04265C14.4401 2.65581 13.4557 1.51362 12.1058 1.02888C11.5138 0.816289 11.5525 0.818105 7.61422 0.820922C4.26291 0.823367 3.9728 0.828518 3.68105 0.890921ZM11.2962 2.4673C12.1771 2.65162 12.9276 3.40216 13.112 4.28311C13.1926 4.66879 13.1926 11.1975 13.112 11.5832C12.9276 12.4642 12.1771 13.2147 11.2962 13.399C10.9105 13.4797 4.38171 13.4797 3.99603 13.399C3.11509 13.2147 2.36455 12.4642 2.18023 11.5832C2.09955 11.1975 2.09955 4.66879 2.18023 4.28311C2.36269 3.41117 3.11164 2.65533 3.9775 2.46938C4.34358 2.39075 10.9214 2.38889 11.2962 2.4673ZM11.2565 3.26009C10.8691 3.43603 10.6949 3.90869 10.8729 4.30097C10.9745 4.52516 11.0412 4.59327 11.2591 4.69562C11.5603 4.8371 11.8533 4.80138 12.1069 4.5922C12.2894 4.44167 12.3875 4.22697 12.3885 3.97554C12.3909 3.40309 11.7849 3.02011 11.2565 3.26009ZM6.96629 4.02486C6.1452 4.18013 5.42937 4.55584 4.84907 5.13615C4.34666 5.63856 3.99029 6.25989 3.80171 6.96207C3.71607 7.28098 3.70514 7.39104 3.70514 7.93317C3.70514 8.47531 3.71607 8.58536 3.80171 8.90427C3.99029 9.60646 4.34666 10.2278 4.84907 10.7302C5.35148 11.2326 5.97281 11.589 6.67499 11.7776C6.9939 11.8632 7.10396 11.8741 7.64609 11.8741C8.18823 11.8741 8.29829 11.8632 8.6172 11.7776C9.31938 11.589 9.9407 11.2326 10.4431 10.7302C10.9455 10.2278 11.3019 9.60646 11.4905 8.90427C11.5761 8.58536 11.587 8.47531 11.587 7.93317C11.587 7.39104 11.5761 7.28098 11.4905 6.96207C11.1741 5.78386 10.3923 4.84866 9.29322 4.33362C8.80377 4.10427 8.35072 4.00118 7.75726 3.98421C7.41479 3.97439 7.16532 3.98721 6.96629 4.02486ZM8.25752 5.65965C8.63791 5.75621 8.96908 5.95469 9.29685 6.28242C9.78269 6.76826 9.99143 7.26438 9.99143 7.93317C9.99143 8.60197 9.78269 9.09808 9.29685 9.58393C8.811 10.0698 8.31489 10.2785 7.64609 10.2785C6.9773 10.2785 6.48119 10.0698 5.99534 9.58393C5.50949 9.09808 5.30075 8.60197 5.30075 7.93317C5.30075 7.26438 5.50949 6.76826 5.99534 6.28242C6.62122 5.65653 7.40037 5.44205 8.25752 5.65965Z" fill="#F39E91"/>
</svg>
