<svg width="17" height="14" viewBox="0 0 17 14" fill="none" xmlns="http://www.w3.org/2000/svg">
<path d="M0.879065 6.67132L4.46629 7.98564L5.86465 12.4066C5.92539 12.7053 6.29027 12.765 6.53345 12.5858L8.53976 10.9727C8.7222 10.7935 9.02624 10.7935 9.26942 10.9727L12.8565 13.5416C13.0998 13.7209 13.4646 13.6013 13.5253 13.3027L16.2006 0.756864C16.2613 0.458158 15.9574 0.159452 15.6533 0.278925L0.879065 5.89463C0.51427 6.01421 0.51427 6.55184 0.879065 6.67132ZM5.6822 7.32853L12.7349 3.08678C12.8565 3.02704 12.9781 3.20625 12.8565 3.26599L7.08067 8.58312C6.89823 8.76233 6.71578 9.00127 6.71578 9.29996L6.53345 10.7338C6.53345 10.913 6.22942 10.9727 6.16868 10.7338L5.43902 8.10511C5.25658 7.80643 5.37828 7.44801 5.6822 7.32853Z" fill="#92CA7C"/>
</svg>
