<svg width="18" height="18" viewBox="0 0 18 18" fill="none" xmlns="http://www.w3.org/2000/svg">
<path fill-rule="evenodd" clip-rule="evenodd" d="M7.82583 0.482053C5.02498 0.909288 2.67842 2.62848 1.43509 5.1643C0.276878 7.52642 0.294558 10.3116 1.48265 12.6629L1.69821 13.0895L1.1016 15.2641C0.773505 16.4601 0.513435 17.4471 0.523733 17.4574C0.534032 17.4677 1.52848 17.2171 2.73358 16.9004C3.93869 16.5838 4.95634 16.3247 4.99502 16.3247C5.03369 16.3247 5.21902 16.4015 5.40687 16.4955C6.99863 17.2911 8.97834 17.526 10.8214 17.1378C13.3383 16.6077 15.4916 14.9299 16.6583 12.5898C17.9782 9.94224 17.7851 6.70873 16.1597 4.24252C14.7932 2.16938 12.7067 0.836093 10.2733 0.481346C9.69159 0.396527 8.38407 0.396925 7.82583 0.482053ZM10.5628 2.02316C11.9021 2.3315 13.0411 2.96179 13.9945 3.92234C15.0987 5.03484 15.7819 6.41776 15.9837 7.94888C16.0593 8.52215 16.0125 9.77742 15.8959 10.3069C15.4966 12.1196 14.4314 13.6791 12.8944 14.7012C10.6695 16.1808 7.80006 16.2452 5.46428 14.868L5.23263 14.7314L3.94978 15.0665C3.24422 15.2508 2.65593 15.3906 2.64244 15.3772C2.62901 15.3637 2.7727 14.7897 2.96179 14.1017L3.30557 12.8506L3.15163 12.6097C2.04226 10.8738 1.76513 8.63124 2.4172 6.66709C3.20555 4.29246 5.23728 2.48509 7.65809 2.00482C8.2974 1.87801 8.28767 1.87872 9.19602 1.89074C9.92938 1.90047 10.1026 1.91726 10.5628 2.02316ZM5.83751 4.97442C5.48983 5.07091 4.98476 5.73054 4.8206 6.30253C4.72664 6.62992 4.72611 7.25221 4.8195 7.62092C5.02635 8.43751 5.78628 9.58171 6.82369 10.6386C7.83113 11.6649 8.72326 12.2279 10.1021 12.7072C10.6526 12.8985 10.6569 12.8992 11.2767 12.8992H11.8989L12.2933 12.7038C12.8252 12.4403 13.1535 12.1166 13.2621 11.7484C13.3049 11.6034 13.3494 11.3556 13.361 11.1976C13.3801 10.9379 13.3722 10.9012 13.2781 10.8155C13.1396 10.6896 11.5155 9.91723 11.3236 9.88607C11.2407 9.87263 11.1434 9.87877 11.1075 9.89972C11.0715 9.92072 10.8834 10.1368 10.6895 10.3799C10.2346 10.95 10.1825 10.9952 10.0265 10.9562C9.83528 10.9083 9.13692 10.5591 8.84242 10.364C8.40666 10.0754 7.92378 9.63802 7.60823 9.24597C7.27815 8.83593 6.96394 8.33704 6.96394 8.22301C6.96394 8.18217 7.06529 8.03679 7.18918 7.9C7.48708 7.57102 7.67113 7.27475 7.67113 7.12407C7.67113 7.05676 7.5197 6.63796 7.33468 6.19349C6.95952 5.29235 6.86466 5.09221 6.77931 5.02163C6.69273 4.94993 6.04295 4.9174 5.83751 4.97442Z" fill="#92CA7C"/>
</svg>
