<svg width="95" height="95" viewBox="0 0 95 95" fill="none" xmlns="http://www.w3.org/2000/svg">
<path fill-rule="evenodd" clip-rule="evenodd" d="M21.1172 0.499903C12.0515 2.43877 4.76997 8.83657 1.60846 17.6408C0.200855 21.5616 0.21094 21.3464 0.21094 47.2416C0.21094 73.1368 0.200855 72.9216 1.60846 76.8423C3.05542 80.8718 5.09611 84.0439 8.14473 87.0023C12.0512 90.7929 16.442 93.1012 21.6118 94.0821C24.6422 94.6569 70.2267 94.6569 73.2571 94.0821C82.462 92.3358 90.0431 85.802 93.2604 76.8423C94.668 72.9216 94.6579 73.1368 94.6579 47.2416C94.6579 26.7212 94.605 23.1598 94.275 21.4189C92.5287 12.214 85.9949 4.63294 77.0352 1.4156C73.1053 0.00454762 73.3623 0.0165996 47.2229 0.0352922C24.9792 0.0515253 23.0536 0.0857131 21.1172 0.499903ZM71.6611 10.9629C77.5082 12.1862 82.4898 17.1678 83.7131 23.0149C84.2486 25.5748 84.2486 68.9083 83.7131 71.4682C82.4898 77.3153 77.5082 82.2969 71.6611 83.5203C69.1012 84.0557 25.7677 84.0557 23.2078 83.5203C17.3607 82.2969 12.3791 77.3153 11.1557 71.4682C10.6203 68.9083 10.6203 25.5748 11.1557 23.0149C12.3668 17.2276 17.3378 12.2108 23.0848 10.9766C25.5146 10.4547 69.1735 10.4424 71.6611 10.9629ZM71.3976 16.2248C68.8267 17.3926 67.6704 20.5298 68.8515 23.1335C69.5264 24.6215 69.9689 25.0736 71.4151 25.7529C73.4145 26.692 75.3593 26.4549 77.0423 25.0665C78.2537 24.0674 78.9045 22.6423 78.9113 20.9735C78.9271 17.174 74.9047 14.632 71.3976 16.2248ZM42.9224 21.3009C37.4725 22.3314 32.7214 24.8252 28.8697 28.6768C25.535 32.0115 23.1697 36.1354 21.918 40.7961C21.3496 42.9128 21.277 43.6432 21.277 47.2416C21.277 50.8399 21.3496 51.5704 21.918 53.6871C23.1697 58.3477 25.535 62.4716 28.8697 65.8063C32.2044 69.141 36.3283 71.5063 40.9889 72.758C43.1056 73.3264 43.8361 73.399 47.4344 73.399C51.0328 73.399 51.7633 73.3264 53.8799 72.758C58.5406 71.5063 62.6645 69.141 65.9992 65.8063C69.3338 62.4716 71.6992 58.3477 72.9509 53.6871C73.5193 51.5704 73.5918 50.8399 73.5918 47.2416C73.5918 43.6432 73.5193 42.9128 72.9509 40.7961C70.8509 32.9759 65.662 26.7687 58.3669 23.3502C55.1183 21.828 52.1113 21.1437 48.1723 21.0311C45.8992 20.9659 44.2434 21.051 42.9224 21.3009ZM51.4927 32.1515C54.0174 32.7924 56.2155 34.1097 58.391 36.285C61.6157 39.5097 63.0012 42.8026 63.0012 47.2416C63.0012 51.6806 61.6157 54.9734 58.391 58.1982C55.1663 61.4229 51.8734 62.8083 47.4344 62.8083C42.9954 62.8083 39.7026 61.4229 36.4778 58.1982C33.2531 54.9734 31.8677 51.6806 31.8677 47.2416C31.8677 42.8026 33.2531 39.5097 36.4778 36.285C40.632 32.1308 45.8035 30.7072 51.4927 32.1515Z" fill="white"/>
</svg>
