<svg width="95" height="95" viewBox="0 0 95 95" fill="none" xmlns="http://www.w3.org/2000/svg">
<path fill-rule="evenodd" clip-rule="evenodd" d="M40.8932 0.388065C25.2984 2.76685 12.2331 12.3391 5.31032 26.4582C-1.13844 39.6102 -1.04 55.1176 5.57512 68.2095L6.77534 70.5849L3.45351 82.6927C1.62672 89.3518 0.17868 94.8472 0.236021 94.9048C0.293362 94.9621 5.83033 93.5665 12.5402 91.8035C19.2501 90.0404 24.9162 88.598 25.1316 88.598C25.3469 88.598 26.3788 89.0257 27.4247 89.5487C36.2874 93.979 47.3102 95.2865 57.5722 93.1253C71.586 90.1736 83.575 80.8319 90.071 67.8027C97.4204 53.0612 96.3452 35.0574 87.295 21.3259C79.6869 9.78287 68.0691 2.35931 54.5201 0.384128C51.2815 -0.0881345 44.0014 -0.0859199 40.8932 0.388065ZM56.1323 8.96877C63.5896 10.6856 69.9313 14.1949 75.2396 19.5431C81.3876 25.7374 85.1918 33.4373 86.3153 41.9624C86.7361 45.1543 86.4755 52.1435 85.8263 55.0915C83.6028 65.1845 77.6721 73.8673 69.1142 79.5584C56.7264 87.7967 40.7497 88.1553 27.7444 80.4871L26.4546 79.7267L19.3118 81.5926C15.3834 82.6188 12.1078 83.397 12.0327 83.3222C11.9579 83.2471 12.758 80.0513 13.8108 76.2203L15.725 69.2547L14.8678 67.9135C8.69097 58.2482 7.14794 45.7617 10.7786 34.8256C15.168 21.6039 26.4804 11.5407 39.9592 8.86664C43.5188 8.16058 43.4646 8.16452 48.5222 8.23146C52.6055 8.2856 53.5699 8.37912 56.1323 8.96877ZM29.8224 25.401C27.8866 25.9382 25.0745 29.611 24.1605 32.7958C23.6373 34.6186 23.6343 38.0834 24.1543 40.1364C25.306 44.683 29.5372 51.0538 35.3134 56.9385C40.9227 62.6529 45.8899 65.7872 53.5672 68.4561C56.6321 69.5215 56.6563 69.5254 60.1073 69.5254H63.5714L65.7675 68.4374C68.7291 66.9702 70.5569 65.1678 71.1618 63.1178C71.4 62.3106 71.6478 60.9304 71.7125 60.0506C71.8189 58.6048 71.7746 58.4003 71.2506 57.9236C70.4796 57.2222 61.437 52.9219 60.3684 52.7484C59.9067 52.6736 59.3651 52.7078 59.165 52.8245C58.9649 52.9414 57.9175 54.1443 56.8376 55.4978C54.305 58.672 54.0149 58.924 53.1464 58.7067C52.0815 58.4402 48.1932 56.4958 46.5534 55.4097C44.1271 53.8027 41.4385 51.3673 39.6816 49.1844C37.8438 46.9014 36.0943 44.1237 36.0943 43.4887C36.0943 43.2613 36.6586 42.4519 37.3484 41.6902C39.0071 39.8585 40.0318 38.2089 40.0318 37.37C40.0318 36.9952 39.1887 34.6634 38.1585 32.1886C36.0696 27.1712 35.5415 26.0568 35.0663 25.6638C34.5842 25.2647 30.9663 25.0835 29.8224 25.401Z" fill="white"/>
</svg>
